<svg xmlns="http://www.w3.org/2000/svg" viewBox="0 0 78.6 35.1"><defs><style>.cls-1{fill:none;}</style></defs><g id="Layer_2" data-name="Layer 2"><g id="Layer_5" data-name="Layer 5"><path class="cls-1" d="M38.61,13.76a.45.45,0,0,0-.31-.08l-.58.06v7.61l.58-.06a.43.43,0,0,0,.3-.14.35.35,0,0,0,.13-.27V14A.32.32,0,0,0,38.61,13.76Z"/><path class="cls-1" d="M62,12.15h-.58v3.07H62a.48.48,0,0,0,.31-.1.32.32,0,0,0,.13-.27V12.51a.32.32,0,0,0-.13-.26A.45.45,0,0,0,62,12.15Z"/><path class="cls-1" d="M55.59,12.3a.48.48,0,0,0-.31-.1h-.15a.53.53,0,0,0-.3.12.35.35,0,0,0-.13.27v7.07a.32.32,0,0,0,.13.26.37.37,0,0,0,.3.1h.15a.51.51,0,0,0,.31-.13.35.35,0,0,0,.13-.28V12.55A.29.29,0,0,0,55.59,12.3Z"/><path class="cls-1" d="M25,14.65h-.15a.51.51,0,0,0-.31.13.43.43,0,0,0-.13.28v7.1a.31.31,0,0,0,.13.24.42.42,0,0,0,.31.09H25a.46.46,0,0,0,.3-.13.32.32,0,0,0,.13-.26V15a.32.32,0,0,0-.13-.27A.44.44,0,0,0,25,14.65Z"/><path class="cls-1" d="M62.35,8.2A.27.27,0,0,0,62.48,8V5.79a.27.27,0,0,0-.13-.23.45.45,0,0,0-.31-.1h-.58V8.3H62A.48.48,0,0,0,62.35,8.2Z"/><path class="cls-1" d="M31.85,14.27a.42.42,0,0,0-.31-.09h-.15a.52.52,0,0,0-.31.14.41.41,0,0,0-.12.28V21.7a.32.32,0,0,0,.12.25.47.47,0,0,0,.31.08h.15a.51.51,0,0,0,.31-.13.38.38,0,0,0,.12-.28V14.53A.32.32,0,0,0,31.85,14.27Z"/><path d="M7,12.85,5.48,12.7a.25.25,0,0,0-.19.05.31.31,0,0,0-.12.14c-.48,1.87-1,3.69-1.44,5.49-.48-1.94-1-3.9-1.45-5.87a.38.38,0,0,0-.12-.17A.34.34,0,0,0,2,12.23L.42,12c-.18,0-.26,0-.26.17V22.68c0,.15.08.24.26.27l1.75.29c.17,0,.25,0,.25-.18V18.15l1.21,4.19q0,.09.09.09s.07,0,.1-.06q.6-1.9,1.2-3.84v4.88c0,.14.09.22.26.24L7,23.83c.17,0,.26,0,.26-.19V13.11C7.29,13,7.2,12.87,7,12.85Z"/><path d="M10.41,22.69a1.35,1.35,0,0,0-.8-.32,1.18,1.18,0,0,0-.79.21.71.71,0,0,0-.34.6.83.83,0,0,0,.34.64,1.33,1.33,0,0,0,.79.32,1.21,1.21,0,0,0,.8-.21.76.76,0,0,0,.34-.6A.84.84,0,0,0,10.41,22.69Z"/><path d="M21.17,13.19l-2,.05a.25.25,0,0,0-.27.24Q18.5,16.86,18.1,20H18q-.32-3.16-.63-6.53a.24.24,0,0,0-.27-.23H15.65a.26.26,0,0,0-.28.24q-.3,3.36-.62,6.52h-.07q-.4-3.18-.83-6.55a.23.23,0,0,0-.26-.24l-2-.07c-.15,0-.23.05-.23.17a.11.11,0,0,0,0,.05c.72,3.72,1.43,7.27,2.15,10.62a.27.27,0,0,0,.3.22l1.6,0q.27,0,.3-.21c.21-1.23.43-2.49.64-3.78h0Q16.72,22.2,17,24a.26.26,0,0,0,.3.21l1.61,0c.17,0,.27-.07.29-.21q1.08-5,2.16-10.6v-.06C21.39,13.24,21.32,13.19,21.17,13.19Z"/><path d="M26.86,13.41a2.12,2.12,0,0,0-.74-.4,2.37,2.37,0,0,0-.89-.11l-.69,0a2.47,2.47,0,0,0-.91.2,2.66,2.66,0,0,0-.72.48,2.39,2.39,0,0,0-.5.68,1.84,1.84,0,0,0-.18.8v7.24a1.53,1.53,0,0,0,.18.74,1.86,1.86,0,0,0,.5.58,2.18,2.18,0,0,0,.73.37,2.65,2.65,0,0,0,.9.1l.69,0a2.41,2.41,0,0,0,.89-.2,2.87,2.87,0,0,0,.74-.45,2.18,2.18,0,0,0,.49-.64,1.71,1.71,0,0,0,.19-.76V14.8a1.73,1.73,0,0,0-.19-.78A1.81,1.81,0,0,0,26.86,13.41Zm-1.47,8.7a.32.32,0,0,1-.13.26.46.46,0,0,1-.3.13h-.15a.42.42,0,0,1-.31-.09.31.31,0,0,1-.13-.24v-7.1a.43.43,0,0,1,.13-.28.51.51,0,0,1,.31-.13H25a.44.44,0,0,1,.3.1.32.32,0,0,1,.13.27Z"/><path d="M33.93,13.5a1.88,1.88,0,0,0-.49-.6,2.39,2.39,0,0,0-.73-.37,2.65,2.65,0,0,0-.9-.09l-.69.06a2.71,2.71,0,0,0-.91.23,2.48,2.48,0,0,0-.72.49,2.23,2.23,0,0,0-.49.69,1.7,1.7,0,0,0-.19.79V22a1.46,1.46,0,0,0,.19.74,1.77,1.77,0,0,0,.49.57,2.25,2.25,0,0,0,.73.35,2.43,2.43,0,0,0,.9.08l.69-.06a2.7,2.7,0,0,0,.9-.22,2.89,2.89,0,0,0,.73-.48,2.11,2.11,0,0,0,.49-.66,1.62,1.62,0,0,0,.19-.77V14.26A1.53,1.53,0,0,0,33.93,13.5Zm-2,8.11a.38.38,0,0,1-.12.28.51.51,0,0,1-.31.13h-.15a.47.47,0,0,1-.31-.08A.32.32,0,0,1,31,21.7V14.61a.41.41,0,0,1,.12-.28.52.52,0,0,1,.31-.14h.15a.42.42,0,0,1,.31.09.32.32,0,0,1,.12.26Z"/><path d="M40.69,13a1.81,1.81,0,0,0-.49-.58,2.15,2.15,0,0,0-.73-.35,2.43,2.43,0,0,0-.9-.08l-2.74.24c-.17,0-.26.1-.26.25V23c0,.15.09.21.26.2l2.74-.25a2.72,2.72,0,0,0,.9-.24,2.67,2.67,0,0,0,.73-.49,2.31,2.31,0,0,0,.49-.68,1.66,1.66,0,0,0,.19-.78v-7A1.49,1.49,0,0,0,40.69,13Zm-2,7.9a.35.35,0,0,1-.13.27.43.43,0,0,1-.3.14l-.58.06V13.74l.58-.06a.45.45,0,0,1,.31.08.32.32,0,0,1,.12.26Z"/><path d="M51.49,10.91l-2,.14a.27.27,0,0,0-.28.23q-.41,3.12-.82,6.38h-.07q-.32-3.18-.62-6.26c0-.15-.11-.21-.27-.2L46,11.32a.27.27,0,0,0-.28.24c-.21,2.1-.42,4.24-.62,6.39H45c-.28-2.11-.55-4.2-.83-6.27a.22.22,0,0,0-.27-.2l-2,.18c-.15,0-.22.07-.22.19a.11.11,0,0,0,0,.05c.71,3.41,1.43,6.83,2.15,10.33,0,.14.12.21.29.2l1.61-.14a.3.3,0,0,0,.3-.25c.21-1.35.42-2.69.64-4h0c.21,1.29.42,2.59.63,3.91,0,.15.12.22.29.2L49.26,22a.29.29,0,0,0,.3-.25c.72-3.67,1.44-7.24,2.16-10.66v0C51.72,11,51.64,10.9,51.49,10.91Z"/><path d="M57.68,11.66a1.74,1.74,0,0,0-.5-.58,2.41,2.41,0,0,0-.73-.38,2.62,2.62,0,0,0-.89-.11l-.7,0a2.68,2.68,0,0,0-.9.2,2.54,2.54,0,0,0-.73.44,2.14,2.14,0,0,0-.49.63,1.67,1.67,0,0,0-.18.76v7.22a1.69,1.69,0,0,0,.18.78,2,2,0,0,0,.49.62,2.45,2.45,0,0,0,.73.4,2.72,2.72,0,0,0,.9.12l.7,0a2.46,2.46,0,0,0,.89-.2,2.59,2.59,0,0,0,.73-.46,2.3,2.3,0,0,0,.5-.67,1.91,1.91,0,0,0,.18-.81V12.39A1.55,1.55,0,0,0,57.68,11.66Zm-2,8a.35.35,0,0,1-.13.28.51.51,0,0,1-.31.13h-.15a.37.37,0,0,1-.3-.1.32.32,0,0,1-.13-.26V12.6a.35.35,0,0,1,.13-.27.53.53,0,0,1,.3-.12h.15a.48.48,0,0,1,.31.1.29.29,0,0,1,.13.25Z"/><path d="M63.36,16.68a2.19,2.19,0,0,0,.91-.7,1.59,1.59,0,0,0,.35-1V12.46a1.56,1.56,0,0,0-.18-.74,1.84,1.84,0,0,0-.5-.61,2.47,2.47,0,0,0-.73-.41,2.42,2.42,0,0,0-.89-.16l-2.74,0c-.18,0-.26.08-.26.22V21.29c0,.15.08.23.26.22l1.62,0c.14,0,.22,0,.24-.16l0,.16V17.31c.44,1.29.89,2.61,1.33,4a.33.33,0,0,0,.14.17.44.44,0,0,0,.21.07c.55,0,1.11,0,1.66,0,.13,0,.19-.05.19-.15a.22.22,0,0,0,0-.08Q64.17,18.95,63.36,16.68Zm-.88-1.84a.32.32,0,0,1-.13.27.48.48,0,0,1-.31.1h-.58V12.15H62a.45.45,0,0,1,.31.1.32.32,0,0,1,.13.26Z"/><path d="M72.36,11l-1.83-.16a.33.33,0,0,0-.35.15c-.61,1-1.23,2.09-1.84,3.17V10.93c0-.14-.09-.22-.26-.23l-1.63-.07c-.17,0-.26.06-.26.2v10.5c0,.16.09.24.26.25l1.63.07c.17,0,.26-.06.26-.21V18.5c.1-.21.21-.43.31-.65.44,1.23.89,2.47,1.33,3.73a.33.33,0,0,0,.14.15.46.46,0,0,0,.21.08l1.94.17a.17.17,0,0,0,.18-.07.23.23,0,0,0,0-.18c-.81-2.12-1.61-4.2-2.42-6.22.82-1.45,1.64-2.86,2.45-4.25a.14.14,0,0,0,0-.07.25.25,0,0,0,0-.07A.16.16,0,0,0,72.36,11Z"/><path d="M76.69,14.68c.56,0,1.12-.06,1.67-.07.16,0,.24-.09.24-.24v-.6a1.77,1.77,0,0,0-.19-.8,2.44,2.44,0,0,0-.49-.71,2.92,2.92,0,0,0-.73-.55,2.79,2.79,0,0,0-.9-.29l-.7-.1a2.4,2.4,0,0,0-.89,0,2.16,2.16,0,0,0-.74.32,1.71,1.71,0,0,0-.49.55,1.42,1.42,0,0,0-.19.73V14.8a1.29,1.29,0,0,0,.12.59,2.05,2.05,0,0,0,.4.49c.79.62,1.57,1.25,2.36,1.9a.77.77,0,0,1,.22.31,1.43,1.43,0,0,1,.07.38v2.08a.28.28,0,0,1-.13.25.38.38,0,0,1-.3.06l-.16,0a.47.47,0,0,1-.3-.16.37.37,0,0,1-.13-.28V18.44c0-.14-.08-.2-.24-.19l-1.67.15a.24.24,0,0,0-.24.26v1.52a1.78,1.78,0,0,0,.19.81,2.6,2.6,0,0,0,.49.7,3.07,3.07,0,0,0,.74.52,2.57,2.57,0,0,0,.89.28l.7.11a2.69,2.69,0,0,0,.9,0,2,2,0,0,0,.73-.3,1.49,1.49,0,0,0,.49-.54A1.4,1.4,0,0,0,78.6,21v-2.7a3.77,3.77,0,0,0-.12-.53,1.33,1.33,0,0,0-.38-.52q-1.2-1-2.4-2a.77.77,0,0,1-.2-.28.89.89,0,0,1-.07-.31V13.31a.27.27,0,0,1,.13-.24.39.39,0,0,1,.3-.06L76,13a.49.49,0,0,1,.3.16.37.37,0,0,1,.13.28v1C76.45,14.62,76.53,14.69,76.69,14.68Z"/><path d="M7,5.16,5.48,5.08a.26.26,0,0,0-.19.07.4.4,0,0,0-.12.15c-.48,2-1,3.88-1.44,5.75-.48-2-1-4-1.45-6a.44.44,0,0,0-.12-.17A.37.37,0,0,0,2,4.84L.42,4.71c-.18,0-.26,0-.26.2v5.71c.75.12,1.51.24,2.26.34v-.12l0,.13c.84.12,1.69.22,2.53.31l0-.12v.13l2.27.21V5.42A.24.24,0,0,0,7,5.16Z"/><path d="M13.59,5.36l-2,0c-.15,0-.23.06-.23.18a.13.13,0,0,0,0,.06q.58,3.2,1.16,6.25l2,0c-.25-2-.49-4.12-.74-6.25A.23.23,0,0,0,13.59,5.36Z"/><path d="M21.17,5.34l-2,0a.26.26,0,0,0-.27.26q-.37,3.19-.73,6.24c.68,0,1.35,0,2,0q.59-3.06,1.17-6.25V5.52C21.39,5.4,21.32,5.34,21.17,5.34Z"/><path d="M18,11.87c-.19-2-.37-4.11-.56-6.24a.25.25,0,0,0-.27-.25H15.65a.25.25,0,0,0-.28.24c-.18,2.14-.37,4.22-.55,6.24C15.87,11.87,16.91,11.88,18,11.87Z"/><path d="M26.86,5.71a2.59,2.59,0,0,0-.74-.44,2.38,2.38,0,0,0-.89-.14l-.69,0a2.28,2.28,0,0,0-.91.19,2.48,2.48,0,0,0-.72.49,2.4,2.4,0,0,0-.5.71,2.06,2.06,0,0,0-.18.85v4.37c.72,0,1.43,0,2.14-.09V7.4a.41.41,0,0,1,.13-.29A.46.46,0,0,1,24.81,7H25a.44.44,0,0,1,.3.11.37.37,0,0,1,.13.29v4.25l2.15-.12V7.19a1.86,1.86,0,0,0-.19-.81A2.19,2.19,0,0,0,26.86,5.71Z"/><path d="M33.93,6.07a1.79,1.79,0,0,0-.49-.63A2.09,2.09,0,0,0,32.71,5a2.24,2.24,0,0,0-.9-.13l-.69,0a2.48,2.48,0,0,0-.91.21,2.27,2.27,0,0,0-.72.48,2.16,2.16,0,0,0-.49.7,1.84,1.84,0,0,0-.19.83v4.28L31,11.27V7.11a.4.4,0,0,1,.12-.29.51.51,0,0,1,.31-.13h.15a.48.48,0,0,1,.31.1.37.37,0,0,1,.12.27v4.14L34.12,11V6.85A1.61,1.61,0,0,0,33.93,6.07Z"/><path d="M40.2,5.21a2.36,2.36,0,0,0-1.63-.5l-2.74.12c-.17,0-.26.09-.26.25V10.9l2.15-.18V6.45l.58,0a.41.41,0,0,1,.31.09.34.34,0,0,1,.12.26v3.87l2.15-.18V6.55a1.46,1.46,0,0,0-.19-.74A1.88,1.88,0,0,0,40.2,5.21Z"/><path d="M51.49,4.16l-2,.07a.27.27,0,0,0-.28.22q-.36,2.64-.73,5.4l2-.13Q51.14,7,51.72,4.36V4.31C51.72,4.21,51.64,4.16,51.49,4.16Z"/><path d="M47.73,4.51c0-.14-.11-.2-.27-.2L46,4.37a.27.27,0,0,0-.28.23q-.29,2.7-.55,5.51c1-.09,2.09-.17,3.13-.24C48.1,8.06,47.91,6.27,47.73,4.51Z"/><path d="M43.91,4.46l-2,.09c-.15,0-.22.07-.22.18a.11.11,0,0,0,0,0c.38,1.84.77,3.67,1.16,5.51l2-.17c-.25-1.83-.49-3.64-.74-5.45C44.16,4.52,44.07,4.46,43.91,4.46Z"/><path d="M57.68,5a1.71,1.71,0,0,0-.5-.54,2.39,2.39,0,0,0-.73-.37A2.9,2.9,0,0,0,55.56,4h-.7a2.93,2.93,0,0,0-.9.16,2.71,2.71,0,0,0-.73.41,1.94,1.94,0,0,0-.49.58,1.47,1.47,0,0,0-.18.71V9.6l2.14-.11V5.82a.3.3,0,0,1,.13-.25.52.52,0,0,1,.3-.11h.15a.54.54,0,0,1,.31.09.27.27,0,0,1,.13.23V9.44l2.14-.07V5.66A1.36,1.36,0,0,0,57.68,5Z"/><path d="M63.94,9.32A1.62,1.62,0,0,0,64.27,9a1.42,1.42,0,0,0,.35-1V5.74a1.39,1.39,0,0,0-.18-.69,1.89,1.89,0,0,0-.5-.56,2.65,2.65,0,0,0-.73-.38A2.91,2.91,0,0,0,62.32,4H59.58c-.18,0-.26.07-.26.2V9.34C60.86,9.31,62.4,9.3,63.94,9.32ZM61.46,5.46H62a.45.45,0,0,1,.31.1.27.27,0,0,1,.13.23V8a.27.27,0,0,1-.13.24.48.48,0,0,1-.31.1h-.58Z"/><path d="M72.36,4.23l-1.83-.09a.35.35,0,0,0-.35.16c-.61,1-1.23,2-1.84,3v-3c0-.13-.09-.2-.26-.2L66.45,4c-.17,0-.26.06-.26.19V9.38q2.16.07,4.32.24c-.15-.37-.3-.73-.46-1.09.82-1.38,1.64-2.73,2.45-4.09a.25.25,0,0,0,0-.07.25.25,0,0,0,0-.07A.15.15,0,0,0,72.36,4.23Z"/><path d="M77.92,5.08a2.72,2.72,0,0,0-.73-.48,2.64,2.64,0,0,0-.92-.22l-.66,0a2.48,2.48,0,0,0-.91.08,2.41,2.41,0,0,0-.74.35,1.87,1.87,0,0,0-.49.56,1.32,1.32,0,0,0-.19.7V7.79a1.2,1.2,0,0,0,.12.57,2.21,2.21,0,0,0,.4.46c.58.42,1.17.86,1.75,1.31.84.11,1.69.24,2.53.38a.19.19,0,0,0,.17-.32l-.15-.14c-.8-.64-1.6-1.25-2.4-1.84A.73.73,0,0,1,75.5,8a.88.88,0,0,1-.07-.3V6.27A.3.3,0,0,1,75.56,6a.44.44,0,0,1,.3-.08L76,6a.47.47,0,0,1,.3.14.35.35,0,0,1,.13.27v1q0,.21.24.18l1.67-.16a.24.24,0,0,0,.24-.28V6.66a1.76,1.76,0,0,0-.18-.9A2.19,2.19,0,0,0,77.92,5.08Z"/><path d="M4,24.77c-.09.32-.18.63-.26.94-.09-.33-.17-.67-.26-1-1.11-.15-2.21-.31-3.31-.5v5.91c0,.15.08.23.26.25l1.75.15c.17,0,.25-.05.25-.2v-4.8c.41,1.37.81,2.72,1.21,4,0,.05.05.08.09.08s.07,0,.1-.07L5,25.83v4.68c0,.14.09.21.26.22l1.75.1c.17,0,.26-.06.26-.19V25.11C6.19,25,5.09,24.91,4,24.77Z"/><path d="M10.41,29.65a1.46,1.46,0,0,0-.8-.28,1.24,1.24,0,0,0-.79.22.66.66,0,0,0-.34.57.73.73,0,0,0,.34.59,1.29,1.29,0,0,0,.79.28,1.34,1.34,0,0,0,.8-.22.69.69,0,0,0,.34-.57A.77.77,0,0,0,10.41,29.65Z"/><path d="M18.1,27.14H18l-.18-1.66H14.93l-.18,1.66h-.07c-.08-.55-.15-1.11-.23-1.67l-2.12,0c.4,1.86.81,3.67,1.21,5.41,0,.13.12.2.3.2h1.6c.18,0,.27-.06.3-.19.21-1.14.43-2.3.64-3.49h0c.21,1.19.42,2.35.63,3.49,0,.13.13.19.3.19h1.61c.17,0,.27-.06.29-.19.41-1.74.81-3.54,1.22-5.4l-2.12,0C18.25,26,18.17,26.59,18.1,27.14Z"/><path d="M25.39,29.14a.29.29,0,0,1-.13.25.44.44,0,0,1-.3.11h-.15a.54.54,0,0,1-.31-.09.33.33,0,0,1-.13-.24V25.29l-2.14.09v3.94a1.37,1.37,0,0,0,.18.69,1.83,1.83,0,0,0,.5.54,2.37,2.37,0,0,0,.73.36,2.93,2.93,0,0,0,.9.11h.69a2.87,2.87,0,0,0,.89-.17,2.77,2.77,0,0,0,.74-.41,1.84,1.84,0,0,0,.49-.59,1.55,1.55,0,0,0,.19-.72v-4c-.72,0-1.43.09-2.15.12Z"/><path d="M32,24.8v4a.34.34,0,0,1-.12.26.56.56,0,0,1-.31.12h-.15a.47.47,0,0,1-.31-.08.32.32,0,0,1-.12-.25v-4L28.81,25v4a1.33,1.33,0,0,0,.19.71,1.64,1.64,0,0,0,.49.56,2.49,2.49,0,0,0,.73.36,2.65,2.65,0,0,0,.9.11l.69,0a2.67,2.67,0,0,0,.9-.18,2.78,2.78,0,0,0,.73-.44,2,2,0,0,0,.49-.62,1.55,1.55,0,0,0,.19-.75V24.62Z"/><path d="M38.73,28.32a.35.35,0,0,1-.13.27.46.46,0,0,1-.3.13l-.58,0V24.32l-2.15.18v5.79c0,.14.09.21.26.2l2.74-.13a2.68,2.68,0,0,0,.9-.19,2.61,2.61,0,0,0,.73-.47,2.11,2.11,0,0,0,.49-.66,1.66,1.66,0,0,0,.19-.78V24.05l-2.15.18Z"/><path d="M48.42,25.31h-.07c-.06-.63-.12-1.24-.17-1.86l-2.93.23c-.06.61-.11,1.23-.17,1.85H45c-.08-.61-.16-1.22-.23-1.83l-2.12.18c.4,2,.8,4,1.21,6,0,.15.12.22.29.21L45.77,30a.28.28,0,0,0,.3-.24c.21-1.38.42-2.76.64-4.13h0c.21,1.34.42,2.7.63,4.07,0,.16.12.23.29.22l1.61-.06a.29.29,0,0,0,.3-.25c.4-2.14.81-4.27,1.21-6.36l-2.12.15C48.58,24.05,48.5,24.68,48.42,25.31Z"/><path d="M55.72,23v4.52a.38.38,0,0,1-.13.3.46.46,0,0,1-.31.13h-.15a.38.38,0,0,1-.3-.11.35.35,0,0,1-.13-.28V23.06l-2.14.11v4.57a1.9,1.9,0,0,0,.18.83,2.19,2.19,0,0,0,.49.67,2.54,2.54,0,0,0,.73.44,2.3,2.3,0,0,0,.9.15l.7,0a2.26,2.26,0,0,0,.89-.19,2.44,2.44,0,0,0,.73-.48,2.23,2.23,0,0,0,.5-.71,2.09,2.09,0,0,0,.18-.85V22.94Z"/><path d="M63.36,24.46a2.33,2.33,0,0,0,.91-.76,1.9,1.9,0,0,0,.33-.79q-1.26,0-2.52,0h-.62l-2.14,0v6.47c0,.17.08.25.26.25H61.2a.21.21,0,0,0,.24-.18l0,.18V25.13c.44,1.39.89,2.8,1.33,4.24a.4.4,0,0,0,.14.18.35.35,0,0,0,.21.07H64.8c.13,0,.19-.05.19-.16a.25.25,0,0,0,0-.08C64.44,27.72,63.9,26.07,63.36,24.46Z"/><path d="M70.07,23.16c-1.29-.09-2.59-.16-3.88-.21v6.46a.23.23,0,0,0,.26.25l1.63,0a.21.21,0,0,0,.26-.24V26.34c.1-.23.2-.46.31-.69.44,1.29.89,2.59,1.33,3.9a.31.31,0,0,0,.14.16.44.44,0,0,0,.21.07l1.94.09a.18.18,0,0,0,.18-.09.25.25,0,0,0,0-.19C71.67,27.43,70.87,25.28,70.07,23.16Z"/><path d="M78.1,24.74c-.32-.27-.65-.53-1-.79q-1.31-.21-2.61-.36a.17.17,0,0,0-.13.31l1.78,1.43a.77.77,0,0,1,.22.31,1.51,1.51,0,0,1,.07.39v2.11a.29.29,0,0,1-.13.26.35.35,0,0,1-.3.08h-.16a.49.49,0,0,1-.3-.14.39.39,0,0,1-.13-.29V26c0-.14-.08-.21-.24-.18-.56.06-1.11.14-1.67.22a.25.25,0,0,0-.24.27v1.59a1.84,1.84,0,0,0,.19.83,2.27,2.27,0,0,0,.49.7,2.72,2.72,0,0,0,.74.49,2.54,2.54,0,0,0,.91.23l.65,0a2.36,2.36,0,0,0,.93-.09,2.08,2.08,0,0,0,.73-.36,1.71,1.71,0,0,0,.49-.58,1.49,1.49,0,0,0,.19-.75V25.77a3.77,3.77,0,0,0-.12-.53A1.29,1.29,0,0,0,78.1,24.74Z"/><path d="M2.24.34A.4.4,0,0,0,2.12.19.29.29,0,0,0,1.93.11H.37C.2.11.11.18.11.33v3q1.46.1,2.91.18Z"/><path d="M7.25.37C7.25.2,7.16.12,7,.12H5.44a.27.27,0,0,0-.2.08.61.61,0,0,0-.12.16c-.26,1.1-.51,2.19-.77,3.26l2.9.11Z"/><path d="M14.2,3.88c-.13-1.15-.26-2.32-.39-3.5,0-.17-.1-.26-.27-.26h-2c-.15,0-.22.07-.22.2a.13.13,0,0,0,0,.06c.2,1.17.41,2.33.62,3.47Z"/><path d="M21.35.38V.32c0-.13-.08-.2-.22-.2h-2a.25.25,0,0,0-.27.25c-.13,1.18-.26,2.35-.39,3.5l2.24,0C20.93,2.72,21.14,1.55,21.35.38Z"/><path d="M17.36.39c0-.18-.11-.26-.27-.26H15.61a.26.26,0,0,0-.28.26c-.1,1.18-.2,2.34-.29,3.49h2.61C17.56,2.73,17.46,1.57,17.36.39Z"/><path d="M24.33,2.33a.45.45,0,0,1,.13-.3.51.51,0,0,1,.31-.13h.15a.42.42,0,0,1,.3.12.39.39,0,0,1,.13.3V3.79l2.14,0V2.2a2.06,2.06,0,0,0-.18-.85,2.45,2.45,0,0,0-.49-.7,2.67,2.67,0,0,0-.74-.47A2.21,2.21,0,0,0,25.19,0h-.7a2.26,2.26,0,0,0-.9.18,2.29,2.29,0,0,0-.73.49,2.55,2.55,0,0,0-.49.72,2.2,2.2,0,0,0-.18.88V3.84l2.14,0Z"/><path d="M30.91,2.23A.41.41,0,0,1,31,1.94a.51.51,0,0,1,.31-.13h.15a.41.41,0,0,1,.3.12.34.34,0,0,1,.13.28v1.4l2.15-.07V2.08a1.85,1.85,0,0,0-.19-.8A2.27,2.27,0,0,0,33.4.62a2.41,2.41,0,0,0-.74-.45A2.39,2.39,0,0,0,31.77,0h-.7a2.44,2.44,0,0,0-.9.17,2.41,2.41,0,0,0-.73.47,2.51,2.51,0,0,0-.49.7,2,2,0,0,0-.18.84V3.7l2.14-.06Z"/><path d="M37.67,1.82h.58a.45.45,0,0,1,.32.11.34.34,0,0,1,.12.26v1.2l2.15-.07V2.05a1.61,1.61,0,0,0-.19-.75,2.1,2.1,0,0,0-.49-.62,2.8,2.8,0,0,0-.74-.42,2.6,2.6,0,0,0-.89-.15H35.79c-.17,0-.26.08-.26.23V3.49l2.14-.07Z"/><path d="M51.68.29v0c0-.1-.08-.15-.23-.15h-2c-.16,0-.25.06-.28.19q-.2,1.36-.39,2.76L51.05,3Q51.36,1.61,51.68.29Z"/><path d="M47.68.3c0-.14-.1-.2-.26-.2H45.93a.23.23,0,0,0-.27.21l-.3,2.85L48,3.07Z"/><path d="M44.53,3.18,44.14.31A.23.23,0,0,0,43.87.1h-2c-.15,0-.22.06-.22.17v0c.21,1,.42,2,.62,2.94Z"/><path d="M54.66,1.76a.28.28,0,0,1,.13-.23.49.49,0,0,1,.3-.1h.15a.54.54,0,0,1,.31.09.31.31,0,0,1,.13.23V2.89l2.14,0V1.67A1.25,1.25,0,0,0,57.64,1a1.8,1.8,0,0,0-.5-.53,2.62,2.62,0,0,0-.73-.36A2.9,2.9,0,0,0,55.52,0h-.7a2.92,2.92,0,0,0-.9.13,2.63,2.63,0,0,0-.73.37,1.82,1.82,0,0,0-.49.55,1.35,1.35,0,0,0-.18.67V3l2.14,0Z"/><path d="M61.42,2.84V1.5H62a.52.52,0,0,1,.31.09.26.26,0,0,1,.13.22v1h2.14V1.75a1.25,1.25,0,0,0-.18-.65,1.93,1.93,0,0,0-.5-.53,2.6,2.6,0,0,0-.73-.35,2.9,2.9,0,0,0-.89-.13H59.53c-.17,0-.25.06-.25.18V2.85Z"/><path d="M72.46.29a.14.14,0,0,0,0-.06.25.25,0,0,0,0-.07S72.39.1,72.32.1H70.49a.36.36,0,0,0-.35.17C69.58,1.14,69,2,68.48,2.91L70.84,3Z"/><path d="M68.29,2.9V.28c0-.13-.08-.19-.25-.19H66.41c-.17,0-.26.06-.26.19V2.86Z"/><path d="M75.39,1.92a.31.31,0,0,1,.12-.24.48.48,0,0,1,.31-.1H76a.47.47,0,0,1,.31.11.33.33,0,0,1,.13.26v1c0,.14.07.2.24.17l1.67-.27a.26.26,0,0,0,.24-.27V2a1.72,1.72,0,0,0-.19-.77,2,2,0,0,0-.49-.63,2.29,2.29,0,0,0-.73-.42,2.74,2.74,0,0,0-.9-.15h-.7a2.86,2.86,0,0,0-.89.14,2.59,2.59,0,0,0-.74.39,1.77,1.77,0,0,0-.49.57,1.28,1.28,0,0,0-.19.69V3.06l2.15.1Z"/><path d="M0,34.77c0,.15.09.23.26.23H2c.17,0,.26-.07.26-.21v-3c-.76,0-1.51-.09-2.27-.15Z"/><path d="M4.87,31.93V34.8c0,.14.08.21.26.21H6.88c.17,0,.26-.07.26-.2V32C6.38,32,5.62,32,4.87,31.93Z"/><path d="M3.47,34s.06.08.1.08A.11.11,0,0,0,3.66,34l.66-2.06-1.51-.08Z"/><path d="M10.25,33.77a1.33,1.33,0,0,0-.79-.25,1.28,1.28,0,0,0-.8.23.68.68,0,0,0-.34.56.7.7,0,0,0,.34.56,1.42,1.42,0,0,0,.8.23,1.39,1.39,0,0,0,.79-.23.65.65,0,0,0,.34-.55A.67.67,0,0,0,10.25,33.77Z"/><path d="M13.39,34.83c0,.12.12.18.29.18h1.61c.17,0,.27-.06.29-.18.17-.87.35-1.75.52-2.65l-3.35,0C13,33.07,13.17,34,13.39,34.83Z"/><path d="M16.88,34.83c0,.12.12.18.29.18h1.61c.17,0,.27-.06.29-.18.22-.87.43-1.76.65-2.66-1.12,0-2.23,0-3.35,0C16.54,33.08,16.71,34,16.88,34.83Z"/><path d="M25.24,33.32a.29.29,0,0,1-.13.24.55.55,0,0,1-.31.1h-.15a.49.49,0,0,1-.3-.09.28.28,0,0,1-.13-.23V32.1l-2.15,0v1.29a1.32,1.32,0,0,0,.19.66,1.62,1.62,0,0,0,.49.52,2.49,2.49,0,0,0,.73.36,2.92,2.92,0,0,0,.9.13h.7A2.9,2.9,0,0,0,26,35a2.63,2.63,0,0,0,.73-.37,1.9,1.9,0,0,0,.5-.56,1.36,1.36,0,0,0,.18-.68V32l-2.14,0Z"/><path d="M31.82,33.21a.31.31,0,0,1-.13.25.55.55,0,0,1-.31.11h-.15a.45.45,0,0,1-.3-.1.27.27,0,0,1-.13-.24v-1.3L28.66,32v1.34a1.37,1.37,0,0,0,.18.69,2,2,0,0,0,.49.56,2.63,2.63,0,0,0,.73.37,2.69,2.69,0,0,0,.9.14h.7a2.91,2.91,0,0,0,.89-.14,2.45,2.45,0,0,0,.73-.4,1.77,1.77,0,0,0,.5-.59,1.55,1.55,0,0,0,.18-.73V31.83l-2.14.07Z"/><path d="M38.58,33a.39.39,0,0,1-.13.27.49.49,0,0,1-.31.11h-.58V31.71l-2.14.07v3c0,.14.08.21.26.21h2.74a2.65,2.65,0,0,0,.89-.16,2.51,2.51,0,0,0,.73-.43,2.06,2.06,0,0,0,.5-.64,1.75,1.75,0,0,0,.18-.78v-1.4l-2.14.08Z"/><path d="M43.71,34.76A.27.27,0,0,0,44,35h1.6a.26.26,0,0,0,.3-.24l.51-3.35-3.35.11C43.29,32.58,43.5,33.66,43.71,34.76Z"/><path d="M47.2,34.75a.27.27,0,0,0,.3.24h1.61a.26.26,0,0,0,.29-.24c.21-1.16.43-2.31.64-3.45l-3.34.1C46.86,32.5,47,33.61,47.2,34.75Z"/><path d="M55.56,32.76a.38.38,0,0,1-.13.3.46.46,0,0,1-.3.13H55a.42.42,0,0,1-.31-.13.41.41,0,0,1-.13-.29V31.18l-2.14.05v1.65a2.12,2.12,0,0,0,.18.87,2.49,2.49,0,0,0,.5.7,2.19,2.19,0,0,0,.73.47,2.26,2.26,0,0,0,.9.18h.69a2.21,2.21,0,0,0,.89-.18,2.33,2.33,0,0,0,.74-.49,2.14,2.14,0,0,0,.49-.72,2.26,2.26,0,0,0,.19-.89V31.13l-2.15,0Z"/><path d="M63.68,31.11H61.55l1.09,3.62a.36.36,0,0,0,.13.19A.44.44,0,0,0,63,35h1.67c.12,0,.18-.06.18-.17v-.09Z"/><path d="M59.16,34.72a.23.23,0,0,0,.26.26h1.63a.22.22,0,0,0,.24-.18V31.11H59.16Z"/><path d="M66,34.72a.23.23,0,0,0,.26.26h1.62a.23.23,0,0,0,.26-.26V31.49l.14-.32-2.28,0Z"/><path d="M71.05,31.25l-2.42-.07c.4,1.19.8,2.39,1.19,3.58a.36.36,0,0,0,.14.16.43.43,0,0,0,.22.06h1.94a.2.2,0,0,0,.17-.09.24.24,0,0,0,0-.2Z"/><path d="M76.3,33a.39.39,0,0,1-.13.28.48.48,0,0,1-.31.1h-.15a.45.45,0,0,1-.31-.12.37.37,0,0,1-.13-.29V31.44l-2.14-.11v1.61a2,2,0,0,0,.18.85,2.1,2.1,0,0,0,.5.68,2.21,2.21,0,0,0,.73.46,2.25,2.25,0,0,0,.9.17h.69a2.45,2.45,0,0,0,.91-.16,2.51,2.51,0,0,0,.73-.43,2,2,0,0,0,.49-.62,1.71,1.71,0,0,0,.18-.77V31.63l-2.14-.14Z"/></g></g></svg>