<svg xmlns="http://www.w3.org/2000/svg" viewBox="0 0 200.33 108.16"><defs><style>.cls-1{fill:#007473;}.cls-2{fill:#006b68;}</style></defs><g id="Layer_2" data-name="Layer 2"><g id="Layer_8" data-name="Layer 8"><rect class="cls-1" x="0.85" width="199.48" height="108.16"/><path class="cls-2" d="M199.48,5.41C133,1.71,66.49,9.11,0,5.41V0H199.48Z"/><path class="cls-2" d="M199.48,16.43c-66.49-10-133,10-199.48,0V7.55c66.49,5.05,133-5.06,199.48,0Z"/><path class="cls-2" d="M199.48,31.42c-66.49-16.05-133,16-199.48,0V18.57c66.49,11.08,133-11.07,199.48,0Z"/><path class="cls-2" d="M199.48,98.93C133,92.85,66.49,105,0,98.93V84.76c66.49,13.2,133-13.21,199.48,0Z"/><path class="cls-2" d="M199.48,108.16H0v-7.09c66.49,4.77,133-4.77,199.48,0Z"/><path class="cls-2" d="M199.48,63.66C133,44.8,66.49,82.51,0,63.66V33.56c66.49,16.67,133-16.67,199.48,0Z"/><path class="cls-2" d="M199.48,82.61c-66.49-14-133,14-199.48,0V65.8c66.49,18.55,133-18.56,199.48,0Z"/></g></g></svg>