<svg xmlns="http://www.w3.org/2000/svg" viewBox="0 0 79.06 35.31"><defs><style>.cls-1{fill:#006b68;}</style></defs><g id="Layer_2" data-name="Layer 2"><g id="Layer_5" data-name="Layer 5"><path class="cls-1" d="M34.32,14.34a1.65,1.65,0,0,0-.19-.76,1.81,1.81,0,0,0-.5-.6,2.19,2.19,0,0,0-.73-.37,2.23,2.23,0,0,0-.9-.09l-.7.05a2.72,2.72,0,0,0-.91.24A2.47,2.47,0,0,0,29.16,14a1.84,1.84,0,0,0-.18.8v7.28a1.57,1.57,0,0,0,.18.75,1.82,1.82,0,0,0,.5.57,2.13,2.13,0,0,0,.74.36,2.66,2.66,0,0,0,.9.08l.7-.06a2.49,2.49,0,0,0,.9-.23,2.61,2.61,0,0,0,.73-.47,2.18,2.18,0,0,0,.5-.67,1.79,1.79,0,0,0,.19-.78Zm-2.16,7.4A.35.35,0,0,1,32,22a.54.54,0,0,1-.31.13h-.15a.43.43,0,0,1-.3-.08.3.3,0,0,1-.13-.25V14.7a.35.35,0,0,1,.13-.28.43.43,0,0,1,.3-.14l.15,0a.42.42,0,0,1,.31.09.32.32,0,0,1,.13.26Z"/><path class="cls-1" d="M7.07,12.93l-1.56-.16a.25.25,0,0,0-.19.05A.37.37,0,0,0,5.2,13q-.74,2.82-1.45,5.53c-.49-1.95-1-3.93-1.46-5.91a.44.44,0,0,0-.12-.17A.37.37,0,0,0,2,12.3L.42,12.05c-.18,0-.26,0-.26.18V22.81c0,.15.08.24.26.27l1.76.29c.17,0,.26,0,.26-.18V18.25c.4,1.42.81,2.83,1.21,4.22,0,.06.06.09.1.09s.07,0,.09-.06c.4-1.28.81-2.56,1.21-3.87v4.91c0,.15.09.23.26.25L7.07,24c.18,0,.26,0,.26-.19V13.18C7.33,13,7.25,12.94,7.07,12.93Z"/><path class="cls-1" d="M10.47,22.82a1.35,1.35,0,0,0-.8-.32,1.19,1.19,0,0,0-.8.21.71.71,0,0,0-.34.6.83.83,0,0,0,.34.65,1.33,1.33,0,0,0,.8.32,1.16,1.16,0,0,0,.8-.22.71.71,0,0,0,.34-.6A.81.81,0,0,0,10.47,22.82Z"/><path class="cls-1" d="M21.29,13.27l-2,.05a.25.25,0,0,0-.28.24c-.28,2.26-.55,4.46-.83,6.58h-.07q-.31-3.18-.63-6.56a.24.24,0,0,0-.27-.24H15.74a.26.26,0,0,0-.28.23c-.21,2.26-.41,4.45-.62,6.57h-.07q-.42-3.19-.83-6.59a.24.24,0,0,0-.27-.24l-2-.07c-.15,0-.22,0-.22.17a.11.11,0,0,0,0,.05c.72,3.74,1.44,7.31,2.16,10.68a.27.27,0,0,0,.3.22l1.61,0q.27,0,.3-.21c.22-1.24.43-2.51.65-3.8h0c.21,1.29.42,2.56.63,3.8a.26.26,0,0,0,.3.21l1.62,0c.17,0,.27-.07.29-.21q1.1-5.06,2.18-10.67v-.05C21.52,13.32,21.44,13.26,21.29,13.27Z"/><path class="cls-1" d="M27.51,14.1a2,2,0,0,0-.5-.62,2.22,2.22,0,0,0-.73-.39,2.42,2.42,0,0,0-.9-.12l-.7,0a2.69,2.69,0,0,0-.91.21,2.44,2.44,0,0,0-.73.48,2.19,2.19,0,0,0-.49.68,1.78,1.78,0,0,0-.19.81v7.28a1.49,1.49,0,0,0,.19.75,1.81,1.81,0,0,0,.49.58,2.33,2.33,0,0,0,.74.37,2.65,2.65,0,0,0,.9.1l.7,0a2.46,2.46,0,0,0,.9-.2,2.81,2.81,0,0,0,.73-.45,2.1,2.1,0,0,0,.5-.65,1.71,1.71,0,0,0,.19-.76V14.88A1.73,1.73,0,0,0,27.51,14.1Zm-2,8.14a.35.35,0,0,1-.13.27.54.54,0,0,1-.31.12H25a.49.49,0,0,1-.3-.09.32.32,0,0,1-.13-.26V15.16a.37.37,0,0,1,.13-.28.46.46,0,0,1,.3-.13h.15a.42.42,0,0,1,.31.1.32.32,0,0,1,.13.26Z"/><path class="cls-1" d="M41.12,13.81a1.61,1.61,0,0,0-.19-.75,1.74,1.74,0,0,0-.5-.58,2.17,2.17,0,0,0-.73-.36,2.45,2.45,0,0,0-.9-.08L36,12.29c-.17,0-.26.09-.26.25V23.12c0,.15.09.22.26.2l2.76-.25a2.79,2.79,0,0,0,.9-.24,2.67,2.67,0,0,0,.73-.49,2.34,2.34,0,0,0,.5-.68,1.87,1.87,0,0,0,.19-.79ZM39,21a.38.38,0,0,1-.13.28.52.52,0,0,1-.31.14l-.58,0V13.82l.58-.06a.44.44,0,0,1,.31.08.32.32,0,0,1,.13.26Z"/><path class="cls-1" d="M51.8,11l-2,.13a.27.27,0,0,0-.28.24c-.27,2.09-.55,4.23-.82,6.41h-.08q-.32-3.19-.63-6.3c0-.14-.1-.21-.26-.19l-1.5.12a.26.26,0,0,0-.27.24c-.21,2.11-.42,4.26-.63,6.43h-.07c-.28-2.13-.55-4.23-.83-6.31,0-.15-.11-.21-.27-.2l-2,.18c-.15,0-.23.07-.23.18A.13.13,0,0,0,42,12c.72,3.43,1.44,6.87,2.16,10.39a.25.25,0,0,0,.3.2L46,22.43a.29.29,0,0,0,.29-.25c.22-1.36.44-2.71.65-4h0c.21,1.29.42,2.6.64,3.93,0,.15.12.22.29.2l1.62-.12a.29.29,0,0,0,.3-.25c.72-3.7,1.45-7.29,2.17-10.72v-.06C52,11,51.94,11,51.8,11Z"/><path class="cls-1" d="M58.2,12.46a1.55,1.55,0,0,0-.18-.73,2,2,0,0,0-.5-.59,2.46,2.46,0,0,0-.74-.38,2.65,2.65,0,0,0-.9-.11l-.7,0a2.8,2.8,0,0,0-.91.2,2.36,2.36,0,0,0-.73.45,2.14,2.14,0,0,0-.49.63,1.71,1.71,0,0,0-.19.76V20a1.8,1.8,0,0,0,.19.79,2.1,2.1,0,0,0,.49.62,2.18,2.18,0,0,0,.74.39,2.23,2.23,0,0,0,.9.12l.7,0a2.46,2.46,0,0,0,.9-.2,2.67,2.67,0,0,0,.74-.47,2.26,2.26,0,0,0,.5-.68,1.84,1.84,0,0,0,.18-.8ZM56,19.73a.37.37,0,0,1-.13.29.45.45,0,0,1-.3.12h-.15a.42.42,0,0,1-.31-.1.32.32,0,0,1-.13-.27V12.67a.32.32,0,0,1,.13-.26.49.49,0,0,1,.31-.13h.15a.39.39,0,0,1,.3.09.3.3,0,0,1,.13.25Z"/><path class="cls-1" d="M65.36,21.42c-.54-1.58-1.09-3.13-1.63-4.64a2.31,2.31,0,0,0,.92-.7A1.72,1.72,0,0,0,65,15V12.53a1.48,1.48,0,0,0-.19-.74,2,2,0,0,0-.49-.62,2.52,2.52,0,0,0-.74-.41,2.93,2.93,0,0,0-.9-.16q-1.38,0-2.76,0c-.17,0-.26.07-.26.21V21.41c0,.16.09.23.26.23l1.64,0c.14,0,.22-.06.24-.16l0,.16V17.41c.45,1.3.89,2.62,1.34,4a.32.32,0,0,0,.14.17.42.42,0,0,0,.21.06l1.67,0c.13,0,.19,0,.19-.15A.25.25,0,0,0,65.36,21.42Zm-2.52-6.49a.32.32,0,0,1-.13.27.46.46,0,0,1-.31.1h-.58V12.22h.58a.49.49,0,0,1,.32.1.35.35,0,0,1,.12.26Z"/><path class="cls-1" d="M72.78,11.1l-1.84-.17a.33.33,0,0,0-.35.16c-.62,1-1.24,2.1-1.85,3.18V11c0-.14-.09-.22-.26-.22l-1.64-.08c-.17,0-.26.06-.26.2V21.46c0,.16.09.24.26.24l1.64.08c.17,0,.26-.06.26-.22V18.61c.1-.22.21-.44.31-.65.45,1.23.89,2.48,1.34,3.75a.29.29,0,0,0,.14.15.44.44,0,0,0,.21.07c.65.06,1.31.11,2,.18a.18.18,0,0,0,.17-.07.21.21,0,0,0,0-.19c-.81-2.12-1.62-4.22-2.43-6.25q1.23-2.19,2.46-4.27a.11.11,0,0,0,0-.07.1.1,0,0,0,0-.07A.16.16,0,0,0,72.78,11.1Z"/><path class="cls-1" d="M77.13,14.76l1.69-.07q.24,0,.24-.24v-.6a1.91,1.91,0,0,0-.19-.8,2.55,2.55,0,0,0-.49-.72,3.17,3.17,0,0,0-.74-.55,2.69,2.69,0,0,0-.91-.29l-.7-.1a2.25,2.25,0,0,0-.9,0,1.94,1.94,0,0,0-.73.32,1.67,1.67,0,0,0-.5.56,1.4,1.4,0,0,0-.19.73v1.86a1.29,1.29,0,0,0,.12.59,2.05,2.05,0,0,0,.4.49c.79.62,1.58,1.26,2.37,1.91a.8.8,0,0,1,.22.32,1.42,1.42,0,0,1,.08.38v2.09a.28.28,0,0,1-.13.25.41.41,0,0,1-.31.06l-.15,0A.58.58,0,0,1,76,20.8a.41.41,0,0,1-.13-.29v-2c0-.14-.08-.21-.25-.19L74,18.51a.24.24,0,0,0-.24.26V20.3a1.78,1.78,0,0,0,.19.81,2.3,2.3,0,0,0,.5.7,2.79,2.79,0,0,0,.73.53,3,3,0,0,0,.9.29l.7.1a2.5,2.5,0,0,0,.91,0,2.13,2.13,0,0,0,.74-.3,1.59,1.59,0,0,0,.49-.54,1.54,1.54,0,0,0,.19-.74V18.42a3.77,3.77,0,0,0-.12-.53,1.39,1.39,0,0,0-.38-.53c-.8-.67-1.61-1.33-2.41-2a.82.82,0,0,1-.21-.28.94.94,0,0,1-.07-.31V13.39a.27.27,0,0,1,.13-.24.4.4,0,0,1,.31-.07l.15,0a.53.53,0,0,1,.31.15.41.41,0,0,1,.13.29v1C76.89,14.71,77,14.78,77.13,14.76Z"/><path class="cls-1" d="M7.07,5.19,5.51,5.11a.26.26,0,0,0-.19.07.4.4,0,0,0-.12.15c-.49,2-1,3.9-1.45,5.78-.49-2-1-4-1.46-6A.44.44,0,0,0,2.17,5,.34.34,0,0,0,2,4.87L.42,4.74c-.18,0-.26,0-.26.2v5.74c.76.13,1.52.24,2.28.35v-.12l0,.12c.85.12,1.7.23,2.55.32l0-.12v.12c.76.08,1.52.16,2.28.22V5.45C7.33,5.29,7.25,5.2,7.07,5.19Z"/><path class="cls-1" d="M13.67,5.39l-2,0c-.15,0-.22.06-.22.19a.18.18,0,0,0,0,.06c.39,2.13.78,4.23,1.17,6.28l2,0c-.25-2-.5-4.14-.74-6.29A.25.25,0,0,0,13.67,5.39Z"/><path class="cls-1" d="M21.29,5.37l-2,0a.25.25,0,0,0-.28.25c-.25,2.14-.49,4.24-.74,6.28l2.05,0c.39-2,.78-4.14,1.18-6.28V5.55C21.52,5.43,21.44,5.37,21.29,5.37Z"/><path class="cls-1" d="M18.06,11.93c-.19-2-.37-4.13-.56-6.27a.25.25,0,0,0-.27-.25H15.74a.26.26,0,0,0-.28.25c-.18,2.14-.37,4.23-.55,6.27Z"/><path class="cls-1" d="M27,5.75a2.36,2.36,0,0,0-.73-.45,2.43,2.43,0,0,0-.9-.14l-.7,0a2.28,2.28,0,0,0-.91.19,2.67,2.67,0,0,0-.73.49,2.36,2.36,0,0,0-.49.72,1.92,1.92,0,0,0-.19.85v4.4l2.16-.09V7.45a.39.39,0,0,1,.13-.3A.42.42,0,0,1,25,7h.15a.43.43,0,0,1,.31.12.34.34,0,0,1,.13.28v4.28l2.16-.13V7.24a1.94,1.94,0,0,0-.19-.83A2,2,0,0,0,27,5.75Z"/><path class="cls-1" d="M34.13,6.1a2,2,0,0,0-.5-.63,2.29,2.29,0,0,0-.73-.42,2.42,2.42,0,0,0-.9-.12l-.7,0a2.48,2.48,0,0,0-.91.21,2.29,2.29,0,0,0-.73.49,2.44,2.44,0,0,0-.5.69,2,2,0,0,0-.18.84v4.3l2.16-.15V7.15a.39.39,0,0,1,.13-.29.42.42,0,0,1,.3-.13h.15a.42.42,0,0,1,.31.1.35.35,0,0,1,.13.27v4.16l2.16-.16V6.89A1.8,1.8,0,0,0,34.13,6.1Z"/><path class="cls-1" d="M40.43,5.24a2.22,2.22,0,0,0-.73-.39,2.45,2.45,0,0,0-.9-.11L36,4.86c-.17,0-.26.09-.26.25V11l2.16-.18V6.49l.58,0a.4.4,0,0,1,.31.09.3.3,0,0,1,.13.26V10.7l2.16-.18V6.59a1.61,1.61,0,0,0-.19-.75A1.91,1.91,0,0,0,40.43,5.24Z"/><path class="cls-1" d="M51.8,4.19l-2,.07a.26.26,0,0,0-.28.21c-.24,1.78-.49,3.59-.73,5.44l2-.14Q51.44,7,52,4.38v0C52,4.23,51.94,4.18,51.8,4.19Z"/><path class="cls-1" d="M48,4.54c0-.14-.1-.21-.26-.2l-1.5.06c-.16,0-.25.08-.27.22q-.28,2.73-.56,5.55l3.15-.24C48.38,8.11,48.19,6.31,48,4.54Z"/><path class="cls-1" d="M44.17,4.49l-2,.09c-.15,0-.23.07-.23.18a.11.11,0,0,0,0,0l1.17,5.54,2-.17c-.25-1.84-.49-3.67-.74-5.49A.22.22,0,0,0,44.17,4.49Z"/><path class="cls-1" d="M58,5a2,2,0,0,0-.5-.55,2.68,2.68,0,0,0-.74-.36,2.65,2.65,0,0,0-.9-.12h-.7a3.06,3.06,0,0,0-.91.17,2.45,2.45,0,0,0-.73.4,2.11,2.11,0,0,0-.49.59,1.48,1.48,0,0,0-.19.71V9.65L55,9.54V5.85a.3.3,0,0,1,.13-.24.47.47,0,0,1,.31-.11h.15a.49.49,0,0,1,.3.09.3.3,0,0,1,.13.24V9.5l2.16-.08V5.7A1.37,1.37,0,0,0,58,5Z"/><path class="cls-1" d="M64.81,5.08a1.85,1.85,0,0,0-.49-.56,2.46,2.46,0,0,0-.74-.38,2.65,2.65,0,0,0-.9-.14H59.92c-.17,0-.26.07-.26.2V9.39c1.55,0,3.11,0,4.66,0a2.5,2.5,0,0,0,.33-.32,1.48,1.48,0,0,0,.35-1V5.77A1.33,1.33,0,0,0,64.81,5.08ZM62.84,8a.29.29,0,0,1-.13.25.46.46,0,0,1-.31.1h-.58V5.49h.58a.49.49,0,0,1,.32.1.28.28,0,0,1,.12.23Z"/><path class="cls-1" d="M72.78,4.25l-1.84-.08a.34.34,0,0,0-.35.15c-.62,1-1.24,2-1.85,3V4.29c0-.14-.09-.21-.26-.21L66.84,4c-.17,0-.26.06-.26.19v5.2c1.45.05,2.9.13,4.34.24-.15-.37-.3-.73-.46-1.09.82-1.39,1.64-2.75,2.46-4.12a.07.07,0,0,0,0-.06.1.1,0,0,0,0-.07S72.85,4.26,72.78,4.25Z"/><path class="cls-1" d="M78.38,5.11a2.7,2.7,0,0,0-.74-.48,2.65,2.65,0,0,0-.93-.23l-.65-.05a2.83,2.83,0,0,0-.93.09,2.35,2.35,0,0,0-.73.35,1.67,1.67,0,0,0-.5.56,1.32,1.32,0,0,0-.19.7V7.84a1.13,1.13,0,0,0,.12.56,1.82,1.82,0,0,0,.4.47c.59.43,1.17.87,1.76,1.32.85.11,1.7.24,2.55.38a.19.19,0,0,0,.17-.32l-.15-.14c-.8-.64-1.61-1.26-2.41-1.85A.79.79,0,0,1,75.94,8a.82.82,0,0,1-.07-.29V6.31A.27.27,0,0,1,76,6.07.41.41,0,0,1,76.31,6h.15a.59.59,0,0,1,.31.14.35.35,0,0,1,.13.27v1c0,.14.07.2.23.18l1.69-.16a.24.24,0,0,0,.24-.28V6.7a1.79,1.79,0,0,0-.18-.91A2.51,2.51,0,0,0,78.38,5.11Z"/><path class="cls-1" d="M4,24.92c-.09.31-.17.63-.26.94-.09-.33-.17-.67-.26-1-1.11-.14-2.22-.31-3.33-.5V30.3c0,.15.08.23.26.25l1.76.15c.17,0,.26-.05.26-.2V25.67c.4,1.38.81,2.74,1.21,4.06,0,.05.06.08.1.08s.07,0,.09-.06c.4-1.26.81-2.51,1.21-3.77v4.71c0,.14.09.21.26.22l1.76.1c.18,0,.26-.06.26-.19V25.26C6.23,25.17,5.12,25.05,4,24.92Z"/><path class="cls-1" d="M10.47,29.83a1.32,1.32,0,0,0-.8-.28,1.19,1.19,0,0,0-.8.21.68.68,0,0,0-.34.57.73.73,0,0,0,.34.6,1.29,1.29,0,0,0,.8.28,1.27,1.27,0,0,0,.8-.22.68.68,0,0,0,.34-.57A.73.73,0,0,0,10.47,29.83Z"/><path class="cls-1" d="M18.2,27.3h-.07L18,25.63q-1.47,0-2.94,0c-.06.56-.11,1.11-.17,1.66h-.07l-.24-1.67q-1.06,0-2.13-.06Q13,28.38,13.62,31c0,.13.12.2.3.2h1.61c.18,0,.28-.06.3-.19.22-1.15.43-2.32.65-3.51h0q.32,1.79.63,3.51c0,.13.13.2.3.19h1.62c.17,0,.27-.06.29-.19q.61-2.62,1.23-5.44l-2.14.05C18.36,26.19,18.28,26.75,18.2,27.3Z"/><path class="cls-1" d="M25.54,29.31a.29.29,0,0,1-.13.25.47.47,0,0,1-.31.11H25a.49.49,0,0,1-.3-.09.28.28,0,0,1-.13-.24V25.43l-2.16.1v4a1.28,1.28,0,0,0,.19.69,1.71,1.71,0,0,0,.49.55,2.55,2.55,0,0,0,.74.36,3.26,3.26,0,0,0,.9.12l.7,0a2.93,2.93,0,0,0,.9-.17,2.71,2.71,0,0,0,.73-.41,1.91,1.91,0,0,0,.5-.6,1.49,1.49,0,0,0,.19-.72v-4l-2.16.12Z"/><path class="cls-1" d="M32.16,24.94V29a.32.32,0,0,1-.13.26.56.56,0,0,1-.31.12h-.15a.43.43,0,0,1-.3-.08.3.3,0,0,1-.13-.25V25L29,25.17v4.06a1.48,1.48,0,0,0,.18.72,1.9,1.9,0,0,0,.5.56,2.55,2.55,0,0,0,.74.36,2.65,2.65,0,0,0,.9.11l.7,0a2.45,2.45,0,0,0,.9-.19,2.51,2.51,0,0,0,.73-.43,2,2,0,0,0,.5-.63,1.67,1.67,0,0,0,.19-.75V24.77Z"/><path class="cls-1" d="M39,28.48a.35.35,0,0,1-.13.27.46.46,0,0,1-.31.13l-.58,0V24.46l-2.16.19v5.82c0,.14.09.21.26.2l2.76-.13a2.51,2.51,0,0,0,.9-.2,2.59,2.59,0,0,0,.73-.46,2.3,2.3,0,0,0,.5-.67,1.8,1.8,0,0,0,.19-.79V24.19L39,24.38Z"/><path class="cls-1" d="M48.71,25.46h-.08c-.06-.62-.11-1.24-.17-1.86l-2.94.22-.18,1.87h-.07c-.08-.62-.16-1.23-.23-1.84L42.91,24c.4,2,.81,4,1.21,6a.26.26,0,0,0,.3.22L46,30.21a.27.27,0,0,0,.29-.25c.22-1.39.44-2.77.65-4.15h0c.21,1.35.42,2.71.64,4.09a.24.24,0,0,0,.29.23l1.62-.07a.28.28,0,0,0,.3-.25c.4-2.15.81-4.29,1.22-6.39l-2.13.14C48.86,24.19,48.78,24.82,48.71,25.46Z"/><path class="cls-1" d="M56,23.15v4.56a.37.37,0,0,1-.13.29.38.38,0,0,1-.3.13h-.15a.43.43,0,0,1-.31-.12.34.34,0,0,1-.13-.28V23.2l-2.16.11V27.9a2,2,0,0,0,.19.84,2.19,2.19,0,0,0,.49.67,2.27,2.27,0,0,0,.74.44,2.24,2.24,0,0,0,.9.15h.7A2.37,2.37,0,0,0,58,28.59a2.06,2.06,0,0,0,.18-.85V23.08Z"/><path class="cls-1" d="M63.73,24.6a2.34,2.34,0,0,0,.92-.76A1.8,1.8,0,0,0,65,23l-2.53,0h-.62l-2.16,0v6.51c0,.17.09.25.26.25h1.64c.14,0,.22-.06.24-.17l0,.17V25.28c.45,1.39.89,2.81,1.34,4.26a.34.34,0,0,0,.14.18.35.35,0,0,0,.21.07l1.67,0c.13,0,.19-.06.19-.16a.28.28,0,0,0,0-.09C64.82,27.88,64.27,26.22,63.73,24.6Z"/><path class="cls-1" d="M70.48,23.3q-2-.15-3.9-.21v6.49c0,.17.09.25.26.25l1.64,0a.21.21,0,0,0,.26-.24V26.5c.1-.24.21-.47.31-.7.45,1.3.89,2.61,1.34,3.93a.29.29,0,0,0,.14.15.33.33,0,0,0,.21.07l2,.09a.17.17,0,0,0,.17-.08.23.23,0,0,0,0-.2C72.08,27.59,71.28,25.43,70.48,23.3Z"/><path class="cls-1" d="M78.56,24.88l-1-.79c-.87-.14-1.75-.26-2.62-.36a.18.18,0,0,0-.14.31l1.79,1.44a.77.77,0,0,1,.22.31,1.5,1.5,0,0,1,.08.39v2.13a.29.29,0,0,1-.13.26.42.42,0,0,1-.31.08h-.15a.46.46,0,0,1-.31-.15.37.37,0,0,1-.13-.29v-2c0-.15-.08-.22-.25-.19L74,26.23a.26.26,0,0,0-.24.28V28.1a1.91,1.91,0,0,0,.19.84,2.3,2.3,0,0,0,.5.7,2.7,2.7,0,0,0,.73.5,2.6,2.6,0,0,0,.92.23l.66.05a2.59,2.59,0,0,0,.93-.09,2.13,2.13,0,0,0,.74-.36,1.86,1.86,0,0,0,.49-.59,1.61,1.61,0,0,0,.19-.75V25.92a3.77,3.77,0,0,0-.12-.53A1.34,1.34,0,0,0,78.56,24.88Z"/><path class="cls-1" d="M2.25.35A.36.36,0,0,0,2.13.19.29.29,0,0,0,1.94.11H.38C.2.11.12.18.12.33V3.39c1,.07,1.94.13,2.92.18C2.78,2.49,2.52,1.41,2.25.35Z"/><path class="cls-1" d="M7.29.37C7.29.2,7.2.12,7,.12H5.47A.27.27,0,0,0,5.28.2a.61.61,0,0,0-.13.16c-.26,1.11-.52,2.2-.78,3.28l2.92.12Z"/><path class="cls-1" d="M14.29,3.9c-.13-1.16-.27-2.33-.4-3.51a.24.24,0,0,0-.27-.26h-2c-.15,0-.22.07-.22.2V.38c.21,1.18.42,2.34.63,3.49Q13.17,3.9,14.29,3.9Z"/><path class="cls-1" d="M21.47.38V.32c0-.13-.07-.19-.22-.19h-2c-.16,0-.25.08-.27.26-.13,1.18-.26,2.36-.4,3.52l2.26,0C21.06,2.73,21.27,1.56,21.47.38Z"/><path class="cls-1" d="M17.46.39c0-.18-.11-.26-.27-.26H15.7a.26.26,0,0,0-.28.26c-.1,1.19-.2,2.36-.3,3.52h2.64C17.66,2.75,17.56,1.58,17.46.39Z"/><path class="cls-1" d="M24.47,2.35A.46.46,0,0,1,24.6,2a.45.45,0,0,1,.31-.12h.15a.42.42,0,0,1,.31.13.37.37,0,0,1,.13.29V3.81l2.15-.05V2.22a2.07,2.07,0,0,0-.18-.86,2.19,2.19,0,0,0-.5-.7,2.44,2.44,0,0,0-.73-.48,2.33,2.33,0,0,0-.9-.18h-.7a2.27,2.27,0,0,0-.91.18A2.34,2.34,0,0,0,23,.67a2.49,2.49,0,0,0-.5.73,2.2,2.2,0,0,0-.18.88V3.87l2.15,0Z"/><path class="cls-1" d="M31.09,2.24A.41.41,0,0,1,31.22,2a.51.51,0,0,1,.31-.13h.15a.45.45,0,0,1,.31.12.35.35,0,0,1,.13.28V3.63l2.15-.07V2.09a1.84,1.84,0,0,0-.18-.8,2.07,2.07,0,0,0-.5-.67,2.29,2.29,0,0,0-.74-.45A2.43,2.43,0,0,0,32,0h-.7a2.46,2.46,0,0,0-.91.17,2.4,2.4,0,0,0-1.23,1.17,2.09,2.09,0,0,0-.18.85V3.72l2.15-.06Z"/><path class="cls-1" d="M37.89,1.83h.59a.42.42,0,0,1,.31.11.32.32,0,0,1,.13.26V3.4l2.15-.07V2.06a1.67,1.67,0,0,0-.18-.76,2,2,0,0,0-.5-.61,2.44,2.44,0,0,0-.74-.43,2.64,2.64,0,0,0-.89-.15H36c-.18,0-.26.08-.26.23V3.51l2.15-.07Z"/><path class="cls-1" d="M52,.29v0c0-.1-.08-.15-.23-.15h-2c-.16,0-.26.06-.28.2-.13.91-.26,1.83-.39,2.77L51.35,3C51.56,2.08,51.77,1.18,52,.29Z"/><path class="cls-1" d="M48,.3c0-.13-.1-.2-.27-.2H46.2a.25.25,0,0,0-.28.21c-.09.94-.19,1.9-.29,2.86l2.63-.08Z"/><path class="cls-1" d="M44.79,3.2,44.4.31A.23.23,0,0,0,44.13.1h-2c-.15,0-.22.06-.22.17a.11.11,0,0,0,0,0c.21,1,.41,2,.62,3Z"/><path class="cls-1" d="M55,1.77a.28.28,0,0,1,.13-.23.51.51,0,0,1,.3-.1h.16a.51.51,0,0,1,.3.09.28.28,0,0,1,.13.23V2.91c.72,0,1.44,0,2.16,0V1.68A1.21,1.21,0,0,0,58,1a1.79,1.79,0,0,0-.5-.53,2.49,2.49,0,0,0-.73-.36,2.92,2.92,0,0,0-.9-.13h-.7a2.71,2.71,0,0,0-.91.14A2.62,2.62,0,0,0,53.5.5a1.74,1.74,0,0,0-.49.56,1.24,1.24,0,0,0-.19.67V3l2.16,0Z"/><path class="cls-1" d="M61.78,2.85V1.5h.58a.55.55,0,0,1,.32.1.28.28,0,0,1,.12.22v1H65V1.76a1.17,1.17,0,0,0-.19-.65,1.68,1.68,0,0,0-.5-.53,2.62,2.62,0,0,0-.73-.36,2.92,2.92,0,0,0-.9-.13H59.88c-.17,0-.26.06-.26.19V2.86Z"/><path class="cls-1" d="M72.88.29a.14.14,0,0,0,0-.06.25.25,0,0,0,0-.07S72.81.1,72.74.1H70.9a.36.36,0,0,0-.35.17C70,1.15,69.43,2,68.88,2.92L71.25,3C71.79,2.09,72.34,1.2,72.88.29Z"/><path class="cls-1" d="M68.69,2.92V.28c0-.13-.08-.19-.26-.19H66.8c-.18,0-.26.06-.26.19v2.6Z"/><path class="cls-1" d="M75.83,1.94A.3.3,0,0,1,76,1.69a.46.46,0,0,1,.31-.1h.15a.49.49,0,0,1,.31.11.36.36,0,0,1,.13.26V3c0,.14.07.19.23.16l1.69-.27A.25.25,0,0,0,79,2.58V2a1.71,1.71,0,0,0-.18-.77,1.91,1.91,0,0,0-.5-.63A2.39,2.39,0,0,0,77.6.15,2.76,2.76,0,0,0,76.69,0H76a2.66,2.66,0,0,0-.9.15,2.46,2.46,0,0,0-.74.38,2.23,2.23,0,0,0-.5.57,1.43,1.43,0,0,0-.18.7V3.08l2.16.1Z"/><path class="cls-1" d="M0,35c0,.15.09.22.26.22H2c.17,0,.26-.07.26-.21V32L0,31.83Z"/><path class="cls-1" d="M4.9,32.12V35c0,.13.08.2.26.2H6.92c.17,0,.26-.06.26-.19V32.21Z"/><path class="cls-1" d="M3.49,34.15c0,.05.06.08.1.08a.11.11,0,0,0,.09-.07c.23-.7.45-1.38.67-2.07L2.83,32C3.05,32.73,3.27,33.45,3.49,34.15Z"/><path class="cls-1" d="M10.31,34a1.45,1.45,0,0,0-1.6,0,.64.64,0,0,0,0,1.13,1.35,1.35,0,0,0,.8.24,1.33,1.33,0,0,0,.8-.24.64.64,0,0,0,.34-.55A.68.68,0,0,0,10.31,34Z"/><path class="cls-1" d="M13.46,35c0,.13.13.19.3.19h1.62c.17,0,.27-.06.29-.19.18-.87.35-1.76.52-2.66l-3.37,0C13,33.26,13.25,34.16,13.46,35Z"/><path class="cls-1" d="M17,35c0,.13.12.19.29.19h1.62c.17,0,.27-.06.3-.19.21-.87.43-1.76.64-2.67H16.46C16.64,33.28,16.81,34.16,17,35Z"/><path class="cls-1" d="M25.38,33.52a.3.3,0,0,1-.13.24.49.49,0,0,1-.3.09H24.8a.46.46,0,0,1-.31-.09.27.27,0,0,1-.13-.23V32.29l-2.16,0v1.29a1.27,1.27,0,0,0,.19.66,1.8,1.8,0,0,0,.49.54,2.54,2.54,0,0,0,.74.35,2.93,2.93,0,0,0,.9.14h.7a2.93,2.93,0,0,0,.9-.14,2.45,2.45,0,0,0,.74-.37,1.79,1.79,0,0,0,.5-.56,1.36,1.36,0,0,0,.18-.68V32.22l-2.16.05Z"/><path class="cls-1" d="M32,33.41a.3.3,0,0,1-.13.25.44.44,0,0,1-.3.1h-.15a.46.46,0,0,1-.31-.09.3.3,0,0,1-.13-.24V32.12l-2.16.06v1.35a1.34,1.34,0,0,0,.19.7,2,2,0,0,0,.49.56,2.58,2.58,0,0,0,.74.38,2.93,2.93,0,0,0,.9.14h.7a2.66,2.66,0,0,0,.9-.15,2.73,2.73,0,0,0,.74-.39,1.88,1.88,0,0,0,.49-.6,1.47,1.47,0,0,0,.19-.73V32L32,32.09Z"/><path class="cls-1" d="M38.8,33.16a.32.32,0,0,1-.13.26.43.43,0,0,1-.31.12h-.58V31.89L35.62,32v3c0,.14.09.21.26.21h2.76a2.44,2.44,0,0,0,.9-.16,2.36,2.36,0,0,0,.74-.43,2,2,0,0,0,.49-.64,1.67,1.67,0,0,0,.19-.79v-1.4l-2.16.07Z"/><path class="cls-1" d="M44,35c0,.16.12.23.29.23h1.62a.27.27,0,0,0,.3-.24c.17-1.12.34-2.25.52-3.37l-3.38.11C43.54,32.77,43.75,33.86,44,35Z"/><path class="cls-1" d="M47.48,35a.26.26,0,0,0,.3.24h1.61a.27.27,0,0,0,.3-.25c.21-1.16.43-2.32.65-3.47l-3.37.1C47.14,32.69,47.31,33.81,47.48,35Z"/><path class="cls-1" d="M55.89,33a.44.44,0,0,1-.44.43H55.3a.45.45,0,0,1-.31-.12.45.45,0,0,1-.13-.3v-1.6l-2.15.05v1.66a2.12,2.12,0,0,0,.18.87,2.23,2.23,0,0,0,.5.71,2.35,2.35,0,0,0,1.63.66h.7a2.26,2.26,0,0,0,.9-.18,2.54,2.54,0,0,0,.74-.5,2.11,2.11,0,0,0,.5-.73A2.21,2.21,0,0,0,58,33v-1.7l-2.15,0Z"/><path class="cls-1" d="M64.06,31.29H61.91c.36,1.19.73,2.4,1.09,3.63a.33.33,0,0,0,.14.19.35.35,0,0,0,.21.07H65c.13,0,.19,0,.19-.17a.28.28,0,0,0,0-.09Z"/><path class="cls-1" d="M59.51,34.92a.23.23,0,0,0,.26.26H61.4a.21.21,0,0,0,.24-.18l0,.18V31.29H59.51Z"/><path class="cls-1" d="M66.42,34.92a.23.23,0,0,0,.26.26h1.64c.17,0,.26-.08.26-.25V31.67l.13-.31-2.29-.05Z"/><path class="cls-1" d="M71.46,31.43,69,31.36,70.23,35a.33.33,0,0,0,.14.15.44.44,0,0,0,.22.07h2a.18.18,0,0,0,.17-.1.2.2,0,0,0,0-.2C72.31,33.74,71.89,32.59,71.46,31.43Z"/><path class="cls-1" d="M76.74,33.15a.34.34,0,0,1-.13.28.42.42,0,0,1-.31.1h-.15a.51.51,0,0,1-.31-.13.35.35,0,0,1-.13-.28v-1.5l-2.16-.11v1.62a2.08,2.08,0,0,0,.19.86,2.26,2.26,0,0,0,.5.69,2.51,2.51,0,0,0,.74.46,2.44,2.44,0,0,0,.9.17h.7a2.53,2.53,0,0,0,.91-.17,2.49,2.49,0,0,0,.73-.42,2,2,0,0,0,.49-.63,1.6,1.6,0,0,0,.19-.77v-1.5l-2.16-.14Z"/></g></g></svg>