<svg xmlns="http://www.w3.org/2000/svg" viewBox="0 0 20.7 23.79"><defs><style>.cls-1{fill:#4f5150;}</style></defs><g id="Layer_2" data-name="Layer 2"><g id="Layer_5" data-name="Layer 5"><path class="cls-1" d="M10,22.83c1.14.13,2.28.24,3.42.35.34,0,.5-.09.5-.37V2.22c0-.3-.16-.47-.5-.5-1-.09-2-.19-3-.3a.49.49,0,0,0-.37.1,1,1,0,0,0-.24.27C8.85,5.45,7.92,9,7,12.52,6,8.74,5.1,4.89,4.15,1.05A1.07,1.07,0,0,0,3.92.71a.67.67,0,0,0-.38-.2c-1-.15-2-.32-3-.49C.17,0,0,.07,0,.36V20.93c0,.29.17.46.51.52q1.71.3,3.42.57c.33.05.5-.07.5-.36V12.07c.79,2.76,1.57,5.5,2.36,8.2,0,.11.11.16.18.17s.14,0,.19-.12c.78-2.48,1.57-5,2.35-7.51v9.54q0,.42.51.48"/><path class="cls-1" d="M18.48,23.78A2.31,2.31,0,0,0,20,23.36a1.39,1.39,0,0,0,.66-1.17A1.62,1.62,0,0,0,20,20.94a2.63,2.63,0,0,0-1.56-.61,2.27,2.27,0,0,0-1.55.4,1.39,1.39,0,0,0-.66,1.17,1.64,1.64,0,0,0,.66,1.26,2.63,2.63,0,0,0,1.55.62"/></g></g></svg>