<svg xmlns="http://www.w3.org/2000/svg" viewBox="0 0 78.31 19.16"><defs><style>.cls-1{fill:#006b68;}</style></defs><g id="Layer_2" data-name="Layer 2"><g id="Layer_5" data-name="Layer 5"><path class="cls-1" d="M57.68,5.56a1.55,1.55,0,0,0-.18-.73,1.84,1.84,0,0,0-.5-.58,2.17,2.17,0,0,0-.72-.39,2.63,2.63,0,0,0-.89-.14H54.7a2.66,2.66,0,0,0-.9.16,2.3,2.3,0,0,0-.72.41,1.88,1.88,0,0,0-.49.6,1.62,1.62,0,0,0-.18.74v7.2a1.79,1.79,0,0,0,.18.79,1.92,1.92,0,0,0,.49.64,2.34,2.34,0,0,0,.72.43,2.7,2.7,0,0,0,.9.15h.69a2.43,2.43,0,0,0,.89-.17,2.59,2.59,0,0,0,.72-.45,2.07,2.07,0,0,0,.5-.67,1.84,1.84,0,0,0,.18-.8ZM55.55,12.7a.35.35,0,0,1-.13.28.44.44,0,0,1-.3.11H55a.49.49,0,0,1-.31-.11.37.37,0,0,1-.12-.27v-7a.33.33,0,0,1,.12-.25A.49.49,0,0,1,55,5.31h.15a.41.41,0,0,1,.3.1.3.3,0,0,1,.13.25Z"/><path class="cls-1" d="M64.76,14.47c-.54-1.58-1.08-3.11-1.62-4.61a2.23,2.23,0,0,0,.91-.71,1.67,1.67,0,0,0,.35-1V5.65a1.55,1.55,0,0,0-.18-.73,1.86,1.86,0,0,0-.49-.59,2.24,2.24,0,0,0-.73-.4,2.64,2.64,0,0,0-.89-.15H59.38c-.17,0-.25.07-.25.2V14.46c0,.16.08.23.25.23H61c.14,0,.22-.06.24-.16l0,.16v-4.2q.66,1.93,1.32,4a.29.29,0,0,0,.14.17.33.33,0,0,0,.21.07h1.65c.12,0,.19,0,.19-.15S64.76,14.49,64.76,14.47ZM62.27,8a.32.32,0,0,1-.13.27.48.48,0,0,1-.31.1h-.57v-3h.57a.45.45,0,0,1,.32.11.32.32,0,0,1,.12.25Z"/><path class="cls-1" d="M34.07,6.17a1.71,1.71,0,0,0-.18-.77,2,2,0,0,0-.49-.62,2.26,2.26,0,0,0-.73-.41,2.38,2.38,0,0,0-.89-.14h-.69a2.67,2.67,0,0,0-.9.18,2.51,2.51,0,0,0-.72.45,2.27,2.27,0,0,0-.49.66,1.79,1.79,0,0,0-.18.79v7.19a1.59,1.59,0,0,0,.18.74,1.83,1.83,0,0,0,.49.58,2.13,2.13,0,0,0,.73.39,2.4,2.4,0,0,0,.89.13h.69a2.61,2.61,0,0,0,.89-.17,2.51,2.51,0,0,0,.73-.43,1.85,1.85,0,0,0,.49-.62,1.67,1.67,0,0,0,.18-.76Zm-2.13,7.18a.34.34,0,0,1-.12.26.5.5,0,0,1-.31.12h-.15a.44.44,0,0,1-.3-.1.3.3,0,0,1-.13-.25v-7a.34.34,0,0,1,.13-.27.41.41,0,0,1,.3-.12h.15a.44.44,0,0,1,.31.11.34.34,0,0,1,.12.26Z"/><path class="cls-1" d="M27.53,6.35a1.72,1.72,0,0,0-.18-.78,2.06,2.06,0,0,0-.49-.64,2.31,2.31,0,0,0-.73-.43,2.22,2.22,0,0,0-.89-.15h-.69a2.26,2.26,0,0,0-.9.18,2.2,2.2,0,0,0-.72.45,2.11,2.11,0,0,0-.49.66,1.84,1.84,0,0,0-.18.8v7.19a1.55,1.55,0,0,0,.18.73,1.81,1.81,0,0,0,.49.58,2.41,2.41,0,0,0,.73.39,2.59,2.59,0,0,0,.89.13h.69a2.65,2.65,0,0,0,.89-.16,2.47,2.47,0,0,0,.73-.41,2.06,2.06,0,0,0,.49-.61,1.59,1.59,0,0,0,.18-.74ZM25.4,13.51a.32.32,0,0,1-.13.26.44.44,0,0,1-.3.11h-.15a.44.44,0,0,1-.3-.1.3.3,0,0,1-.13-.25v-7a.35.35,0,0,1,.13-.27.41.41,0,0,1,.3-.12H25a.39.39,0,0,1,.3.1.35.35,0,0,1,.13.27Z"/><path class="cls-1" d="M13.91,15.42h1.6c.17,0,.27-.07.29-.2.22-1.22.43-2.46.64-3.73h0c.21,1.27.42,2.52.63,3.73,0,.13.12.2.29.2H19c.17,0,.27-.07.29-.21q1.08-4.92,2.15-10.48v0c0-.12-.07-.18-.22-.18l-2,0a.26.26,0,0,0-.28.23q-.41,3.38-.81,6.52h-.07q-.31-3.13-.63-6.51a.23.23,0,0,0-.26-.24H15.71a.24.24,0,0,0-.27.24c-.21,2.25-.41,4.42-.62,6.5h-.07c-.27-2.09-.55-4.26-.82-6.51a.25.25,0,0,0-.27-.24h-2c-.15,0-.22,0-.22.17a.13.13,0,0,0,0,.06c.71,3.69,1.43,7.2,2.14,10.48C13.64,15.35,13.74,15.42,13.91,15.42Z"/><path class="cls-1" d="M44.06,14.94l1.6,0a.26.26,0,0,0,.29-.23c.22-1.33.43-2.66.64-4h0c.21,1.3.42,2.61.63,3.94a.24.24,0,0,0,.29.22l1.6,0a.26.26,0,0,0,.29-.24c.72-3.64,1.44-7.16,2.15-10.5V4c0-.11-.07-.16-.22-.16l-2,0a.25.25,0,0,0-.28.22c-.27,2-.54,4.14-.81,6.28h-.08q-.3-3.2-.62-6.25c0-.14-.1-.21-.26-.21L45.86,4c-.16,0-.25.08-.27.22-.21,2.07-.41,4.18-.62,6.32H44.9c-.27-2.12-.55-4.21-.82-6.28A.23.23,0,0,0,43.81,4l-2,0c-.15,0-.22.06-.22.17a.09.09,0,0,0,0,0c.71,3.44,1.42,6.88,2.14,10.41C43.79,14.87,43.89,14.94,44.06,14.94Z"/><path class="cls-1" d="M68.09,4c0-.14-.08-.21-.25-.22l-1.62,0c-.17,0-.26.07-.26.21V14.47c0,.16.09.24.26.24l1.62,0c.17,0,.25-.07.25-.23V11.56c.11-.22.21-.44.31-.66.44,1.2.89,2.43,1.33,3.67a.34.34,0,0,0,.13.14.43.43,0,0,0,.22.06l1.93.05a.2.2,0,0,0,.17-.09.19.19,0,0,0,0-.18c-.8-2.06-1.6-4.09-2.4-6.06Q71,6.27,72.23,4.13a.1.1,0,0,0,0-.07.11.11,0,0,0,0-.07c0-.05-.07-.07-.14-.07l-1.82,0c-.17,0-.29,0-.34.17-.62,1.06-1.23,2.13-1.84,3.22Z"/><path class="cls-1" d="M74.9,10.85l-1.65.29a.27.27,0,0,0-.24.28v1.52a1.79,1.79,0,0,0,.18.79,2.3,2.3,0,0,0,.5.66,2.36,2.36,0,0,0,.73.45,2.41,2.41,0,0,0,.89.2l.69,0a2.45,2.45,0,0,0,1.62-.5,1.88,1.88,0,0,0,.49-.6,1.67,1.67,0,0,0,.18-.76V10.53a2.65,2.65,0,0,0-.11-.52,1.19,1.19,0,0,0-.38-.47L75.42,7.86a.78.78,0,0,1-.21-.25,1.11,1.11,0,0,1-.07-.3V5.91a.3.3,0,0,1,.13-.25.48.48,0,0,1,.31-.1h.15a.46.46,0,0,1,.3.13.32.32,0,0,1,.13.26V7c0,.15.07.21.24.18l1.66-.27a.25.25,0,0,0,.23-.27V6a1.71,1.71,0,0,0-.18-.77,2.07,2.07,0,0,0-.49-.65,2.25,2.25,0,0,0-.73-.45A2.45,2.45,0,0,0,76,4l-.69,0a2.59,2.59,0,0,0-.89.12,2.3,2.3,0,0,0-.73.38,2,2,0,0,0-.5.59,1.52,1.52,0,0,0-.18.73V7.58a1.18,1.18,0,0,0,.12.57,1.62,1.62,0,0,0,.4.46c.78.54,1.56,1.1,2.34,1.67a.61.61,0,0,1,.22.29,1.28,1.28,0,0,1,.07.36V13a.32.32,0,0,1-.13.27.49.49,0,0,1-.3.09h-.15a.46.46,0,0,1-.31-.13.37.37,0,0,1-.13-.27V11C75.14,10.87,75.06,10.81,74.9,10.85Z"/><path class="cls-1" d="M78.07,16.34c-22.15-.8-44.3.46-66.45.27A82.13,82.13,0,0,1,.24,15.79.22.22,0,0,0,0,16c0,.78,0,2.12,0,2.89a.25.25,0,0,0,.24.25H78.07a.24.24,0,0,0,.24-.25V16.59A.25.25,0,0,0,78.07,16.34Z"/><path class="cls-1" d="M78.07,0H.25A.24.24,0,0,0,0,.24V2.15a.27.27,0,0,0,.24.25C2,2.68,9.47,3,11.47,3.06c22.19.57,44.4-1.06,66.6-.26a.23.23,0,0,0,.24-.24V.24A.24.24,0,0,0,78.07,0Z"/><path class="cls-1" d="M5.1,15.37l1.74.18c.17,0,.25-.05.25-.19V4.89c0-.16-.08-.24-.25-.26-.52,0-1-.1-1.55-.15a.26.26,0,0,0-.19,0A.31.31,0,0,0,5,4.67C4.5,6.53,4,8.34,3.55,10.13q-.72-2.9-1.44-5.84A.44.44,0,0,0,2,4.12.3.3,0,0,0,1.8,4L.26,3.76c-.17,0-.26,0-.26.18V14.4c0,.15.09.24.26.27L2,15c.17,0,.25,0,.25-.18,0-1.62,0-3.25,0-4.88.4,1.4.8,2.8,1.2,4.17a.17.17,0,0,0,.1.09.09.09,0,0,0,.09-.07c.4-1.26.8-2.53,1.2-3.82v4.85C4.84,15.27,4.92,15.35,5.1,15.37Z"/><path class="cls-1" d="M9.38,15.85a1.18,1.18,0,0,0,.79-.21.73.73,0,0,0,.34-.59.84.84,0,0,0-.34-.64,1.32,1.32,0,0,0-.79-.31,1.16,1.16,0,0,0-.79.2.71.71,0,0,0-.34.6.83.83,0,0,0,.34.64A1.29,1.29,0,0,0,9.38,15.85Z"/><path class="cls-1" d="M40.79,6.07a1.6,1.6,0,0,0-.18-.75,1.81,1.81,0,0,0-.49-.61,2.24,2.24,0,0,0-.73-.4,2.6,2.6,0,0,0-.89-.14l-2.72.07c-.17,0-.26.08-.26.23V14.93c0,.15.09.22.26.21l2.72-.06a2.61,2.61,0,0,0,.89-.18,2.54,2.54,0,0,0,.73-.44,2.14,2.14,0,0,0,.49-.64,1.74,1.74,0,0,0,.18-.77Zm-2.13,7a.32.32,0,0,1-.13.26.41.41,0,0,1-.3.12l-.58,0V5.88l.58,0a.42.42,0,0,1,.31.1.34.34,0,0,1,.12.26Z"/></g></g></svg>