<svg xmlns="http://www.w3.org/2000/svg" viewBox="0 0 78.36 19.17"><defs><style>.cls-1{fill:none;}</style></defs><g id="Layer_2" data-name="Layer 2"><g id="Layer_5" data-name="Layer 5"><path class="cls-1" d="M55.46,5.41a.48.48,0,0,0-.31-.1H55a.44.44,0,0,0-.3.11.32.32,0,0,0-.13.26v7a.35.35,0,0,0,.13.28.44.44,0,0,0,.3.11h.15a.49.49,0,0,0,.31-.11.38.38,0,0,0,.12-.28v-7A.32.32,0,0,0,55.46,5.41Z"/><path class="cls-1" d="M61.87,5.36H61.3V8.41h.57a.49.49,0,0,0,.31-.11A.32.32,0,0,0,62.31,8V5.72a.3.3,0,0,0-.13-.25A.45.45,0,0,0,61.87,5.36Z"/><path class="cls-1" d="M31.08,13.64a.44.44,0,0,0,.3.1h.15a.44.44,0,0,0,.3-.11.32.32,0,0,0,.13-.26v-7a.32.32,0,0,0-.13-.26.39.39,0,0,0-.3-.1h-.15a.41.41,0,0,0-.3.12.35.35,0,0,0-.13.27v7.05A.3.3,0,0,0,31.08,13.64Z"/><path class="cls-1" d="M24.53,13.79a.47.47,0,0,0,.3.1H25a.55.55,0,0,0,.31-.11.35.35,0,0,0,.13-.26v-7a.35.35,0,0,0-.13-.27A.44.44,0,0,0,25,6.1h-.15a.44.44,0,0,0-.3.12.39.39,0,0,0-.13.28v7A.33.33,0,0,0,24.53,13.79Z"/><path class="cls-1" d="M38.25,13.43a.45.45,0,0,0,.31-.12.35.35,0,0,0,.13-.26V6.22A.32.32,0,0,0,38.56,6a.45.45,0,0,0-.31-.1l-.58,0v7.57Z"/><path d="M13.92,15.43h1.6c.17,0,.27-.07.29-.21.22-1.21.43-2.45.64-3.72h0q.32,1.9.63,3.72c0,.14.12.21.29.21H19c.17,0,.27-.07.3-.21q1.07-4.92,2.15-10.48V4.69c0-.12-.08-.18-.23-.18l-2,0a.24.24,0,0,0-.27.24q-.42,3.38-.82,6.51h-.07q-.32-3.13-.63-6.51c0-.16-.1-.23-.26-.23H15.72a.24.24,0,0,0-.27.23C15.24,7,15,9.19,14.83,11.28h-.07c-.27-2.09-.55-4.26-.82-6.52a.24.24,0,0,0-.27-.23l-2,0c-.15,0-.22.06-.22.17a.13.13,0,0,0,0,.06c.71,3.7,1.42,7.21,2.14,10.49C13.65,15.36,13.75,15.43,13.92,15.43Z"/><path d="M22.45,14.38a1.94,1.94,0,0,0,.49.58,2.67,2.67,0,0,0,.73.39,2.9,2.9,0,0,0,.89.13h.7a2.55,2.55,0,0,0,.88-.16,2.35,2.35,0,0,0,.73-.41,2.09,2.09,0,0,0,.5-.61,1.62,1.62,0,0,0,.18-.74V6.35a1.75,1.75,0,0,0-.18-.78,2.22,2.22,0,0,0-.5-.64,2.39,2.39,0,0,0-.73-.43,2.54,2.54,0,0,0-.88-.15h-.7a2.57,2.57,0,0,0-.89.18,2.36,2.36,0,0,0-.73.45,2.19,2.19,0,0,0-.49.67,1.79,1.79,0,0,0-.18.79v7.2A1.55,1.55,0,0,0,22.45,14.38ZM24.4,6.5a.39.39,0,0,1,.13-.28.44.44,0,0,1,.3-.12H25a.44.44,0,0,1,.31.11.35.35,0,0,1,.13.27v7a.35.35,0,0,1-.13.26.55.55,0,0,1-.31.11h-.15a.47.47,0,0,1-.3-.1.33.33,0,0,1-.13-.25Z"/><path d="M29,14.26a1.81,1.81,0,0,0,.49.58,2.13,2.13,0,0,0,.73.39,2.4,2.4,0,0,0,.89.13h.69a2.87,2.87,0,0,0,.89-.17,2.51,2.51,0,0,0,.73-.43,1.85,1.85,0,0,0,.49-.62,1.67,1.67,0,0,0,.18-.76V6.17a1.67,1.67,0,0,0-.18-.76,2,2,0,0,0-.49-.63,2.47,2.47,0,0,0-.73-.41,2.38,2.38,0,0,0-.89-.14h-.69a2.67,2.67,0,0,0-.9.18,2.4,2.4,0,0,0-.72.46,2.07,2.07,0,0,0-.49.65,1.82,1.82,0,0,0-.18.79v7.2A1.59,1.59,0,0,0,29,14.26ZM31,6.34a.35.35,0,0,1,.13-.27.41.41,0,0,1,.3-.12h.15a.39.39,0,0,1,.3.1.32.32,0,0,1,.13.26v7.05a.32.32,0,0,1-.13.26.44.44,0,0,1-.3.11h-.15a.44.44,0,0,1-.3-.1.3.3,0,0,1-.13-.25Z"/><path d="M35.8,15.15l2.73-.06a2.66,2.66,0,0,0,.89-.18,2.48,2.48,0,0,0,.72-.44,2.1,2.1,0,0,0,.5-.65,1.71,1.71,0,0,0,.18-.77v-7a1.6,1.6,0,0,0-.18-.75,1.84,1.84,0,0,0-.5-.61,2.39,2.39,0,0,0-1.61-.53l-2.73.06c-.17,0-.26.08-.26.23V14.94C35.54,15.09,35.63,15.16,35.8,15.15Zm1.87-9.27.58,0a.45.45,0,0,1,.31.1.32.32,0,0,1,.13.26v6.83a.35.35,0,0,1-.13.26.45.45,0,0,1-.31.12l-.58,0Z"/><path d="M44.09,15l1.6,0a.26.26,0,0,0,.29-.23c.21-1.33.43-2.66.64-4h0c.21,1.3.42,2.61.63,3.94a.24.24,0,0,0,.29.22l1.6,0a.26.26,0,0,0,.29-.24C50.17,11,50.89,7.43,51.6,4.09V4c0-.11-.07-.16-.22-.16l-2,0a.26.26,0,0,0-.28.22q-.41,3.06-.81,6.29h-.08c-.2-2.13-.41-4.21-.62-6.26A.23.23,0,0,0,47.37,4L45.89,4a.24.24,0,0,0-.27.22c-.21,2.07-.42,4.18-.62,6.31h-.07c-.28-2.13-.55-4.22-.82-6.29A.23.23,0,0,0,43.84,4l-2,0c-.15,0-.22.06-.22.17v.06c.72,3.43,1.43,6.87,2.15,10.41C43.82,14.88,43.92,15,44.09,15Z"/><path d="M57.53,4.83A1.81,1.81,0,0,0,57,4.25a2.22,2.22,0,0,0-.73-.39,2.6,2.6,0,0,0-.89-.14h-.69a2.66,2.66,0,0,0-.9.16,2.3,2.3,0,0,0-.72.41,1.91,1.91,0,0,0-.49.61,1.55,1.55,0,0,0-.18.73v7.2a1.8,1.8,0,0,0,.18.8,2.18,2.18,0,0,0,.49.64,2.39,2.39,0,0,0,.73.43,2.64,2.64,0,0,0,.89.15h.69a2.21,2.21,0,0,0,.89-.18,2.36,2.36,0,0,0,.73-.45,1.9,1.9,0,0,0,.49-.66,1.85,1.85,0,0,0,.19-.8V5.56A1.56,1.56,0,0,0,57.53,4.83Zm-2,7.88a.38.38,0,0,1-.12.28.49.49,0,0,1-.31.11H55a.44.44,0,0,1-.3-.11.35.35,0,0,1-.13-.28v-7a.32.32,0,0,1,.13-.26.44.44,0,0,1,.3-.11h.15a.48.48,0,0,1,.31.1.32.32,0,0,1,.12.25Z"/><path d="M64.26,4.92a2.11,2.11,0,0,0-.49-.59,2.45,2.45,0,0,0-.73-.4,2.64,2.64,0,0,0-.89-.15H59.42c-.17,0-.26.07-.26.21V14.47c0,.16.09.23.26.23H61a.23.23,0,0,0,.24-.16l0,.16V10.5q.66,1.93,1.32,4a.29.29,0,0,0,.14.17.31.31,0,0,0,.2.07h1.66c.12,0,.19-.05.19-.15s0-.06,0-.09c-.54-1.57-1.08-3.11-1.62-4.6a2.32,2.32,0,0,0,.91-.71,1.69,1.69,0,0,0,.35-1V5.65A1.55,1.55,0,0,0,64.26,4.92ZM62.31,8a.32.32,0,0,1-.13.26.49.49,0,0,1-.31.11H61.3v-3h.57a.45.45,0,0,1,.31.11.3.3,0,0,1,.13.25Z"/><path d="M68.14,4c0-.14-.09-.21-.26-.21l-1.62,0c-.17,0-.26.07-.26.21V14.48c0,.16.09.24.26.24l1.62,0c.17,0,.26-.07.26-.23V11.57c.1-.22.2-.44.31-.66q.66,1.8,1.32,3.66a.33.33,0,0,0,.14.15.39.39,0,0,0,.21.06l1.93.05a.18.18,0,0,0,.17-.09.17.17,0,0,0,0-.18c-.8-2.06-1.6-4.09-2.4-6.06.82-1.49,1.63-2.93,2.44-4.37a.19.19,0,0,0,0-.07.25.25,0,0,0,0-.07.16.16,0,0,0-.14-.07l-1.82,0A.36.36,0,0,0,70,4c-.61,1.06-1.22,2.13-1.83,3.22Z"/><path d="M75,10.85l-1.65.3a.26.26,0,0,0-.24.27v1.52a1.84,1.84,0,0,0,.18.8,2.27,2.27,0,0,0,.49.66,2.56,2.56,0,0,0,.73.45,2.68,2.68,0,0,0,.89.2l.7,0A2.23,2.23,0,0,0,77,15a2.35,2.35,0,0,0,.72-.38,1.88,1.88,0,0,0,.49-.6,1.67,1.67,0,0,0,.18-.76V10.53a2.4,2.4,0,0,0-.11-.51,1.19,1.19,0,0,0-.38-.47c-.79-.57-1.59-1.13-2.39-1.68a.84.84,0,0,1-.2-.25.94.94,0,0,1-.07-.3V5.91a.3.3,0,0,1,.13-.25.4.4,0,0,1,.3-.09h.16a.48.48,0,0,1,.3.13.35.35,0,0,1,.13.27V7c0,.14.07.2.23.17l1.67-.27a.24.24,0,0,0,.23-.26V6a1.77,1.77,0,0,0-.18-.77,2.18,2.18,0,0,0-.49-.65A2.6,2.6,0,0,0,76.05,4l-.7,0a2.63,2.63,0,0,0-.89.12,2.41,2.41,0,0,0-.73.38,2,2,0,0,0-.49.59,1.55,1.55,0,0,0-.18.73V7.58a1.22,1.22,0,0,0,.12.58,1.71,1.71,0,0,0,.39.45l2.35,1.67a.69.69,0,0,1,.21.29,1.34,1.34,0,0,1,.08.37V13a.29.29,0,0,1-.13.26.45.45,0,0,1-.3.1h-.16a.48.48,0,0,1-.3-.13.35.35,0,0,1-.13-.27V11C75.19,10.88,75.11,10.82,75,10.85Z"/><path d="M78.12,16.35c-22.17-.8-44.33.46-66.49.27A82.16,82.16,0,0,1,.24,15.8.22.22,0,0,0,0,16c0,.78,0,2.12,0,2.89a.25.25,0,0,0,.24.25H78.12a.25.25,0,0,0,.24-.25V16.6A.26.26,0,0,0,78.12,16.35Z"/><path d="M78.12,0H.25A.24.24,0,0,0,0,.24V2.15a.27.27,0,0,0,.24.25C2,2.68,9.47,3,11.48,3.06,33.69,3.63,55.91,2,78.12,2.8a.24.24,0,0,0,.24-.24V.24A.24.24,0,0,0,78.12,0Z"/><path d="M5.34,15.38l1.74.18c.18,0,.26-.05.26-.19V4.89c0-.15-.08-.24-.26-.25L5.54,4.48a.25.25,0,0,0-.19,0,.37.37,0,0,0-.12.14Q4.51,7.46,3.8,10.13c-.48-1.92-1-3.88-1.44-5.84a1.36,1.36,0,0,0-.12-.17A.39.39,0,0,0,2.05,4L.5,3.77c-.17,0-.26,0-.26.17V14.41c0,.15.09.24.26.27.58.1,1.16.2,1.74.28.17,0,.26,0,.26-.17V9.9c.4,1.41.8,2.8,1.2,4.18a.13.13,0,0,0,.09.09s.07,0,.1-.07c.4-1.26.8-2.53,1.2-3.82v4.85C5.08,15.28,5.17,15.36,5.34,15.38Z"/><path d="M9.65,15.86a1.17,1.17,0,0,0,.79-.21.7.7,0,0,0,.34-.59.81.81,0,0,0-.34-.64,1.36,1.36,0,0,0-.79-.32,1.18,1.18,0,0,0-.79.21.7.7,0,0,0-.34.59.83.83,0,0,0,.34.65A1.32,1.32,0,0,0,9.65,15.86Z"/></g></g></svg>